<?xml version="1.0" encoding="UTF-8" standalone="no"?>
<!DOCTYPE svg  PUBLIC '-//W3C//DTD SVG 1.1//EN'  'http://www.w3.org/Graphics/SVG/1.1/DTD/svg11.dtd'>
<svg xmlns="http://www.w3.org/2000/svg">
<defs>
<font id="UnDinaru-Regular" horiz-adv-x="1095">
<font-face underline-position="-409" font-weight="400" descent="-410" panose-1="2 11 6 0 0 1 1 1 1 1" units-per-em="2048" unicode-range="U+000D-2666" bbox="-113 -457 2128 1894" x-height="1092" underline-thickness="102" font-family="UnDinaru" ascent="1638" cap-height="1475"/>
<missing-glyph horiz-adv-x="2048"/>
<glyph glyph-name=".notdef" horiz-adv-x="2048"/>
<glyph glyph-name="uni0000" horiz-adv-x="0"/>
<glyph glyph-name="uni0000" horiz-adv-x="0"/>
<glyph glyph-name="uni000D" horiz-adv-x="0" unicode=""/>
<glyph glyph-name="uni0020" horiz-adv-x="491" unicode=" "/>
<glyph glyph-name="uni0021" horiz-adv-x="567" unicode="!" d="M303 -12q-43 0 -74 30q-32 31 -32 74q0 41 32 74q31 31 74 31t74 -31t31 -74q0 -40 -31 -74q-34 -30 -74 -30zM213 483v897q0 45 25 66q28 22 61 22q39 0 65.5 -20.5t26.5 -67.5v-893q0 -100 -92 -100q-86 10 -86 96z"/>
<glyph glyph-name="uni0022" horiz-adv-x="641" unicode='&quot;' d="M403 1384q0 37 25 64q23 25 59 25q84 0 84 -89v-288q0 -72 -88 -80q-80 9 -80 80v288zM113 1384q0 37 24 64q25 25 60 25q84 0 84 -89v-288q0 -35 -23 -54q-20 -20 -65 -26q-80 9 -80 80v288z"/>
<glyph glyph-name="uni0023" d="M408 575h239l45 306h-243zM315 1016l58 381q6 45 20 59q17 17 56 17q67 0 67 -72v-25l-47 -360h240l55 385q10 72 80 72q67 0 67 -93l-51 -364h127q43 0 63.5 -20.5t20.5 -51.5q0 -63 -84 -63h-143l-43 -306h127q80 0 80 -67q0 -64 -76 -64h-152l-53 -376q0 -80 -76 -80 t-76 75l5 21l53 360h-246l-51 -376q-6 -48 -19 -60q-22 -20 -61 -20q-72 0 -72 75l4 25l48 356h-132q-77 0 -79 64q6 67 88 67h143l43 306h-131q-34 0 -55 18q-25 16 -29 45q4 72 80 72h151z" unicode="#"/>
<glyph glyph-name="uni0024" horiz-adv-x="946" unicode="$" d="M532 680v-528q62 12 111 49q47 41 78 98t31 137q0 84 -45 142q-41 55 -175 102zM449 899v418q-84 -8 -142 -64q-59 -59 -59 -141q0 -141 201 -213zM449 1473v100q0 35 38 35q45 0 45 -39v-96q183 -19 277 -97q35 -28 35 -76q0 -33 -25 -55q-28 -24 -59 -24q-27 8 -84 39 l-78 40q-55 17 -66 17v-449q207 -65 309.5 -163.5t102.5 -284.5q0 -98 -63 -205q-52 -86 -142 -145q-88 -58 -207 -74v-105q0 -43 -45 -43q-38 0 -38 43v97q-205 0 -349 96q-59 41 -59 84q12 84 72 84q41 0 67 -16q142 -93 269 -93v570q-127 39 -218 90q-90 53 -131 121 q-45 75 -45 180q0 84 56 170q52 77 141 135q92 55 197 64z"/>
<glyph glyph-name="uni0025" horiz-adv-x="1515" unicode="%" d="M944 324q0 -91 49 -158q49 -70 127 -70q121 0 160 125q16 53 16 111q0 108 -47 172q-49 59 -129 59q-88 0 -129 -65q-47 -76 -47 -174zM809 319q0 213 141 310q72 47 174 47q86 0 156 -41q152 -90 152 -316q0 -215 -156 -296q-70 -39 -156 -39q-88 0 -157 45 q-74 45 -113 121q-41 86 -41 169zM219 1120q0 -71 31 -133q53 -98 145 -98q176 0 176 231q0 95 -36 160q-47 80 -136 80q-86 0 -133 -66q-20 -26 -33 -73q-14 -43 -14 -101zM84 1116q0 213 143 307q74 50 172 50q84 0 156 -43q78 -48 115 -123q39 -78 39 -191 q0 -100 -43 -180q-82 -156 -271 -156q-137 0 -225 101q-86 94 -86 235zM412 76l565 1356q24 57 63 57q31 0 54 -14q22 -17 22 -43q0 -23 -8 -39l-571 -1373q-13 -49 -72 -49q-55 0 -70 58z"/>
<glyph glyph-name="uni0026" horiz-adv-x="1366" unicode="&amp;" d="M399 889q-120 133 -145 215q-14 43 -14 100q0 170 172 238q75 31 163 31q144 0 234 -64q106 -70 106 -205q0 -207 -264 -348l326 -387l74 106l45 72q55 88 96 88q76 0 76 -59q0 -98 -101 -217l-88 -107l189 -227q24 -31 24 -70q0 -63 -80 -63q-36 0 -59 24l-176 207 q-66 -82 -137 -129q-64 -47 -156 -78q-90 -28 -168 -28q-120 0 -221 55q-107 53 -164 154q-59 102 -59 219l8 84q8 98 84 200q63 86 235 189zM872 344l-372 428q-252 -133 -252 -340q0 -59 43 -143q33 -64 96 -99q70 -38 145 -38q99 0 193 57q89 52 147 135zM553 969 q190 98 190 219q0 61 -49 100q-47 39 -119 39q-65 0 -110 -41q-47 -41 -49 -106q2 0 4 -11v-16q9 -31 18 -43l31 -45z"/>
<glyph glyph-name="uni0027" horiz-adv-x="380" unicode="&apos;" d="M68 1155l125 250q32 63 88 63q88 0 88 -75q0 -33 -17 -66l-129 -248q-28 -63 -84 -71q-78 16 -92 88q2 18 21 59z"/>
<glyph glyph-name="uni0028" horiz-adv-x="415" unicode="(" d="M256 1432q27 75 88 75q68 0 68 -63q0 -35 -29 -133l-35 -115l-29 -174l-14 -156l-6 -190q0 -8 2 -62.5t2 -99.5l4 -115q0 -90 33 -268q22 -117 63 -227l9 -43q0 -25 -23 -47q-21 -19 -49 -19q-49 0 -80 70q-49 110 -82 256q-37 175 -37 276q0 82 -2 107l-8 188 q0 49 4 127q17 213 58 395q24 109 63 218z"/>
<glyph glyph-name="uni0029" horiz-adv-x="415" unicode=")" d="M236 1432q124 -314 124 -807q0 -478 -129 -760q-30 -70 -79 -70q-64 0 -76 70q117 344 117 811q0 414 -109 735q0 21 -4 29q10 67 63 67q66 0 93 -75z"/>
<glyph glyph-name="uni002A" horiz-adv-x="796" unicode="*" d="M348 1188q0 41 -24 201q0 30 22 59q23 25 53.5 25t53.5 -19q20 -20 18 -53l-8 -92q-2 -23 -3 -40.5t-3 -28.5q-2 -10 -3 -18l-1 -34l61 57q78 72 137 72q31 0 51 -21q19 -22 19 -53q0 -39 -41 -55l-188 -80l196 -80q37 -16 37 -59q0 -25 -18 -49q-23 -23 -56 -23 q-34 3 -67 31l-131 104v-33q0 2 1 -3t3 -25.5t4 -40.5l10 -99q0 -79 -76 -88q-30 0 -51 25q-20 27 -20 55q24 92 24 197v12l-69 -61l-64 -47q-31 -21 -72 -27q-21 0 -43 25q-20 20 -24 51q6 39 41 55l190 80l-82 29q-61 16 -106 43q-37 22 -47 63q0 31 22 53q21 21 53.5 21 t65.5 -21l82 -61z"/>
<glyph glyph-name="uni002B" horiz-adv-x="1228" unicode="+" d="M532 604v352q0 35 25 60q27 20 59 20q84 0 84 -80v-352h359q39 0 59 -24q19 -25 19 -60t-25 -59.5t-59 -24.5h-353v-356q0 -35 -24 -57q-27 -23 -60 -23q-30 0 -57 24.5t-27 59.5v352h-360q-34 0 -55 25q-25 26 -25 59q12 84 80 84h360z"/>
<glyph glyph-name="uni002C" horiz-adv-x="491" unicode="," d="M59 -121l134 260q26 58 83 58q80 0 80 -80q0 -31 -12 -62l-131 -256q-31 -59 -92 -59q-31 0 -55.5 24.5t-24.5 55.5q0 35 18 59z"/>
<glyph glyph-name="uni002D" horiz-adv-x="720" unicode="-" d="M152 629h411q39 0 62 -21q22 -22 22 -59q0 -78 -84 -78h-407q-40 0 -62 25q-22 20 -26 49q3 37 24 61q23 23 60 23z"/>
<glyph glyph-name="uni002E" horiz-adv-x="491" unicode="." d="M256 197q43 0 73.5 -31t30.5 -74q0 -40 -30 -74q-34 -30 -74 -30q-41 0 -72 32q-32 31 -32 72t32 74q31 31 72 31z"/>
<glyph glyph-name="uni002F" horiz-adv-x="831" unicode="/" d="M47 113l582 1298q26 62 84 62q80 0 80 -76q0 -25 -9 -41l-579 -1305q-27 -63 -88 -63q-68 0 -80 75l6 25z"/>
<glyph glyph-name="uni0030" d="M260 748q0 -360 129 -523q64 -82 164 -82q184 0 256 289q31 123 31 281q0 399 -140 538q-65 66 -155 66q-183 0 -254 -299q-31 -132 -31 -270zM68 756q0 379 202 594q58 61 127.5 92t155.5 31q233 0 360 -232q62 -108 91 -235q28 -119 28 -254q0 -168 -35 -312 q-71 -288 -249 -397q-93 -55 -195 -55q-238 0 -365 225q-120 217 -120 543z" unicode="0"/>
<glyph glyph-name="uni0031" horiz-adv-x="720" unicode="1" d="M336 1305h-184q-29 0 -56 22q-24 23 -28 53q2 33 24 58q29 22 64 22h309q34 0 43 -12q8 -14 8 -39v-1325q0 -43 -24 -70q-27 -26 -68 -26q-33 0 -59 26q-29 29 -29 72v1219z"/>
<glyph glyph-name="uni0032" d="M104 1016q0 110 56 225q55 113 172 174q106 58 239 58q108 0 197 -50q197 -107 197 -331q0 -150 -109 -295l-483 -641h555q76 0 76 -80q0 -76 -80 -76h-719q-80 0 -88 63q8 50 22 66l553 743q76 101 76 215q0 96 -68 160q-69 66 -163 66q-74 0 -131 -39 q-130 -89 -130 -258q0 -117 -88 -117l-8 4q-76 0 -76 113z" unicode="2"/>
<glyph glyph-name="uni0033" d="M135 1141q29 209 205 291q92 41 201 41q98 0 186 -58q170 -108 170 -323q0 -197 -170 -308q119 -32 182 -131q65 -99 65 -202q0 -11 -1 -23l-8 -104q-56 -263 -340 -324q-60 -12 -133 -12q-103 0 -183 39q-89 43 -141 104q-57 64 -80 145l-4 25l-4 27q0 40 24 67 q25 29 64 29q63 0 88 -80q57 -178 248 -205q74 0 137 37q96 53 133 154q10 37 10 65q0 293 -247 293q-111 0 -121 72q0 37 20 51q6 4 49 20q4 0 22.5 6.5t33.5 10.5q176 47 176 264q0 51 -33 109q-25 47 -70 71q-43 25 -102 25q-92 0 -152 -60q-57 -59 -57 -153 q0 -76 -84 -92q-39 0 -59 37q-25 30 -25 92z" unicode="3"/>
<glyph glyph-name="uni0034" d="M684 532v748l-432 -748h432zM684 377h-580q-79 0 -88 51q7 43 43 104l529 857q37 61 63 69q29 15 76 15q64 0 100 -41q37 -40 37 -105v-795h92q35 0 58 -24q22 -27 22 -59q0 -72 -88 -72h-84v-293q0 -43 -26.5 -69.5t-65.5 -26.5q-37 0 -61 24q-27 25 -27 68v297z" unicode="4"/>
<glyph glyph-name="uni0035" d="M303 1380q10 60 19 72q6 8 47 8h516q76 0 76 -80q0 -30 -23 -53q-18 -22 -57 -22h-412l-61 -398q92 41 184 41q231 0 336 -227q48 -105 48 -203q0 -11 -1 -22l-2 -43q0 -37 -8 -88q-11 -52 -43 -121q-41 -90 -109 -146q-133 -110 -309 -110q-82 0 -174 26 q-97 27 -160.5 78t-81.5 135q0 29 18 54q19 22 46 22q47 0 75 -35q123 -116 269 -116q127 0 206 90q78 90 78 215q0 219 -121 291q-57 32 -135 32l-61 -6l-88 -24q-6 -2 -21.5 -6.5t-25.5 -8.5q-13 -4 -52 -10q-55 0 -61 63l4 27z" unicode="5"/>
<glyph glyph-name="uni0036" d="M293 532l-8 -71q0 -119 65 -209q74 -96 191 -96q129 0 194 90q64 88 64 208v21l-2 45q-4 123 -74 199q-61 69 -170 69q-102 0 -174 -61q-70 -61 -86 -195zM633 1444q35 29 63 29q33 0 54 -27q18 -28 18 -62q0 -41 -59 -94l-31 -26l-57 -52q-78 -71 -125 -151l-109 -176 q125 59 229 59q117 0 207 -76q88 -71 127 -184q41 -111 41 -231q0 -201 -137 -336q-132 -129 -313 -129q-125 0 -227.5 71.5t-153.5 186.5q-58 123 -58 231q0 21 2 31l9 113q14 241 194 479q151 196 326 344z" unicode="6"/>
<glyph glyph-name="uni0037" horiz-adv-x="980" unicode="7" d="M139 1317q-84 0 -92 76q10 80 88 80h746q92 0 92 -50l-21 -71l-565 -1284q-37 -80 -111 -80q-26 0 -45 18q-20 14 -26 53q10 52 18 72l529 1186h-613z"/>
<glyph glyph-name="uni0038" d="M369 815q-97 53 -142 133q-20 35 -37 90q-14 43 -14 90q0 201 168 295q83 50 197 50q243 0 336 -173q43 -76 43 -172q0 -221 -189 -317q127 -31 199 -133q65 -96 65 -234q0 -258 -204 -389q-105 -67 -238 -67q-131 0 -238 67q-215 139 -215 394q0 59 19 124q20 66 51 109 q70 100 199 133zM344 1104q0 -94 53 -158q52 -57 156 -57q96 0 152 61q51 58 51 158q0 92 -56 152q-55 57 -145 57q-96 0 -153.5 -57.5t-57.5 -155.5zM293 436q0 -63 31 -133q70 -160 221 -160q166 0 231 152q31 67 31 145t-29 142q-26 67 -94 108q-66 41 -139 41 q-115 0 -187 -92q-65 -84 -65 -203z" unicode="8"/>
<glyph glyph-name="uni0039" d="M809 928v59q0 131 -59 219q-68 99 -195 99t-193 -91q-65 -94 -65 -209v-20l2 -45q3 -117 74 -197q61 -71 172 -71q106 0 176 61q70 58 88 195zM465 16q-37 -24 -70 -24q-27 0 -49 24q-18 27 -22 56l4 24q6 15 69 76l82 76q84 96 119 147l111 180q-43 -22 -107 -43 q-61 -16 -119 -16q-45 0 -84 8q-45 8 -96 39q-65 37 -115 117q-43 70 -63 158q-21 82 -21 170q0 135 64 241q131 224 387 224q197 0 315 -150q56 -68 86 -170q31 -96 31 -205q0 -174 -72 -346q-131 -315 -450 -586z" unicode="9"/>
<glyph glyph-name="uni003A" horiz-adv-x="491" unicode=":" d="M256 676q-39 0 -71.5 32.5t-32.5 71.5q0 41 32 74q31 31 72 31q43 0 76 -31q28 -35 28 -74q0 -43 -30.5 -73.5t-73.5 -30.5zM256 -12q-35 0 -69.5 30.5t-34.5 73.5q0 41 32 74q31 31 72 31q43 0 76 -31q28 -35 28 -74q0 -43 -30.5 -73.5t-73.5 -30.5z"/>
<glyph glyph-name="uni003B" horiz-adv-x="491" unicode=";" d="M55 -129l142 272q28 54 84 54q79 0 79 -76q0 -17 -16 -62l-129 -260q-27 -55 -90 -55q-76 0 -84 80q2 29 14 47zM256 676q-39 0 -71.5 32.5t-32.5 71.5q0 41 32 74q31 31 72 31q43 0 76 -31q28 -35 28 -74q0 -43 -30.5 -73.5t-73.5 -30.5z"/>
<glyph glyph-name="uni003C" horiz-adv-x="1228" unicode="&lt;" d="M160 608l848 424q36 17 63 17q70 0 70 -68q0 -49 -66 -84l-768 -377l780 -389q50 -25 50 -76q0 -26 -18.5 -46.5t-51.5 -20.5l-55 16l-865 428q-46 25 -55 80q6 70 68 96z"/>
<glyph glyph-name="uni003D" horiz-adv-x="1228" unicode="=" d="M1053 219h-873q-37 0 -61 27q-27 24 -27 53v5q0 35 25 58q24 25 63 25h877q35 0 57 -22q19 -25 19 -62q0 -84 -80 -84zM1053 647h-873q-37 0 -61 27q-27 24 -27 53v5q0 35 25 59q24 24 63 24h877q35 0 57 -22q19 -25 19 -62q0 -84 -80 -84z"/>
<glyph glyph-name="uni003E" horiz-adv-x="1228" unicode="&gt;" d="M1071 608q66 -30 66 -96q0 -53 -58 -80l-860 -428q-37 -16 -59 -16q-27 0 -45 20q-19 19 -23 47q8 64 51 76l781 389l-768 377q-66 35 -72 86q0 29 22 45q21 21 54 21q26 0 63 -17z"/>
<glyph glyph-name="uni003F" horiz-adv-x="907" unicode="?" d="M348 479v273q0 45 23 61q20 21 80 35l77 20q66 19 105 64q43 46 43 135q0 107 -65.5 172.5t-174.5 65.5q-129 0 -190 -88q-22 -28 -31 -62q-29 -90 -86 -90q-49 16 -68 35q-24 18 -24 63q2 4 3 10.5t1 10.5v20q25 113 139.5 191t268.5 78q227 0 354 -166q41 -56 55 -90 q19 -43 19 -105q0 -342 -349 -420v-213q0 -59 -57 -84q-14 -8 -35 -8q-37 3 -61 31q-27 24 -27 61zM512 20q-31 -32 -72 -32q-45 0 -75 32q-33 31 -33 72q0 43 32.5 74t75.5 31q40 0 74 -31q31 -34 31 -74q0 -41 -33 -72z"/>
<glyph glyph-name="uni0040" horiz-adv-x="1640" unicode="@" d="M563 752l-18 -119q0 -74 43 -123q45 -51 125 -66q80 0 147 68q72 72 98 150q33 83 33 174q0 151 -123 151q-237 0 -305 -235zM1067 987l29 84q16 43 24 51q17 11 43 11q29 0 54 -13q22 -12 22 -41l-2 -12v-14l-158 -566q0 -53 62 -59q61 14 116 57q58 47 84 99 q28 40 50 116q18 66 18 144q0 298 -289 430q-135 61 -297 61q-145 0 -295 -82q-141 -77 -225 -225q-76 -139 -76 -311q0 -168 88 -305q82 -131 236 -213q141 -74 280 -74q117 0 207 22q127 35 260 144q70 57 111 57q22 0 37 -12q14 -14 14 -37q0 -27 -33 -72 q-47 -47 -120 -96q-68 -47 -207 -96q-135 -47 -273 -47q-188 0 -370 102q-174 100 -277 262q-104 168 -104 365q0 225 114 399q114 172 289 264q176 93 348 93q197 0 365 -72q158 -72 260 -205q107 -137 113 -293l2 -43v-9q0 -88 -37 -196q-76 -211 -268 -313 q-103 -53 -201 -53q-133 0 -146 119h-8q-100 -119 -243 -119q-80 0 -156 51q-71 46 -105 117q-20 47 -28 78q-10 45 -10 81q0 117 65 254q129 271 397 271q166 0 240 -154z"/>
<glyph glyph-name="uni0041" horiz-adv-x="1251" unicode="A" d="M289 315l-96 -264q-21 -63 -93 -63q-34 0 -57 20q-25 21 -27 51l7 27l6 23l471 1259q20 57 53 80q35 29 72 29q88 0 127 -105l477 -1263q8 -27 8 -54q0 -71 -84 -71q-25 0 -55 18q-28 18 -37 49l-96 264h-676zM344 471h567l-282 793z"/>
<glyph glyph-name="uni0042" horiz-adv-x="1099" unicode="B" d="M299 696v-540h242q98 0 176 37q76 38 108 100q35 63 35 131q0 156 -133 233q-70 39 -168 39h-260zM299 1305v-461h209q72 0 129 33q55 32 84 86q27 51 27 112q0 99 -59.5 164.5t-160.5 65.5h-229zM121 1364q0 96 92 96h328q108 0 196 -47q84 -47 135 -125q56 -86 56 -172 q0 -149 -84 -246q-47 -53 -119 -77q231 -60 293 -232q22 -74 22 -141q0 -115 -53 -205t-162 -154q-107 -61 -245 -61h-361q-98 0 -98 96v1268z"/>
<glyph glyph-name="uni0043" horiz-adv-x="1216" unicode="C" d="M1112 1317q25 -31 25 -70q0 -28 -23 -51q-18 -20 -53 -25q-33 9 -45 17l-80 59q-40 31 -92 49q-49 21 -123 21q-160 0 -260 -86q-103 -86 -156 -223q-20 -54 -37 -134q-12 -67 -12 -131q0 -120 39 -256q41 -139 137 -239q100 -105 260 -105q113 0 178 27q23 8 74 35 q31 14 92 51q33 16 60 16q67 0 67 -79q0 -43 -26 -68q-152 -137 -432 -137q-316 0 -490 245q-152 218 -152 476q0 149 41 290q40 133 123 246q84 109 203 164q133 64 279 64q63 0 149 -19q90 -18 146 -49q57 -31 108 -88z"/>
<glyph glyph-name="uni0044" horiz-adv-x="1292" unicode="D" d="M129 1364q0 96 94 96h369q192 0 338 -94q149 -92 225 -264q74 -164 74 -367q0 -206 -74 -381q-72 -170 -215 -262q-144 -92 -332 -92h-385q-35 0 -63 23q-31 22 -31 57v1284zM307 1305v-1149h281q63 0 137 22q70 21 145 88q166 144 166 482q0 311 -178 458 q-47 39 -100 62q-82 37 -195 37h-256z"/>
<glyph glyph-name="uni0045" horiz-adv-x="907" unicode="E" d="M121 1360q0 45 22 74q27 26 54 26h551q32 0 55 -22q20 -21 20 -62q0 -84 -80 -84h-444v-481h406q36 0 59 -25q20 -22 20 -59q0 -29 -22 -57q-21 -27 -62 -27h-401v-475h449q34 0 57 -25q18 -24 18 -63t-37 -66q-20 -14 -51 -14h-526q-53 0 -70 31q-14 37 -18 65v1264z "/>
<glyph glyph-name="uni0046" horiz-adv-x="831" unicode="F" d="M121 1360q0 45 22 74q27 26 54 26h551q67 0 67 -88q0 -37 -20 -57q-23 -23 -64 -23h-432v-481h389q37 0 60 -23q20 -22 20 -63q0 -82 -76 -82h-393v-559q0 -96 -90 -96q-33 0 -59 24q-29 25 -29 68v1280z"/>
<glyph glyph-name="uni0047" horiz-adv-x="1366" unicode="G" d="M1208 1292q21 -18 21 -59q0 -35 -27 -55q-27 -25 -61 -25q-37 0 -70 27q-96 75 -162 102q-86 35 -188 35q-195 0 -311 -131q-95 -103 -127 -248q-27 -109 -27 -195q0 -317 174 -491q39 -43 117 -78q71 -31 145 -31q264 0 389 205q64 101 64 256v64h-260q-74 0 -84 80 q8 88 76 88h327q119 0 119 -136v-32q0 -93 -8 -150q-6 -55 -33 -147q-43 -152 -176 -267q-139 -116 -401 -116q-317 0 -492 245q-78 109 -113 236q-37 135 -37 240q0 225 84 405q96 200 283 295q125 64 279 64q356 0 499 -181z"/>
<glyph glyph-name="uni0048" horiz-adv-x="1366" unicode="H" d="M121 1368q0 43 22 72q25 33 66 33q90 0 90 -105v-559h768v559q0 51 27 80q28 29 61 29q37 0 66 -29q26 -29 26 -80v-1280q0 -47 -26 -76q-29 -24 -66 -24q-41 0 -63 28q-25 31 -25 72v563h-768v-563q0 -100 -90 -100q-47 0 -76 47q-12 22 -12 53v1280z"/>
<glyph glyph-name="uni0049" horiz-adv-x="415" unicode="I" d="M121 1376q0 97 92 97q33 0 61 -23q25 -25 25 -74v-1288q0 -55 -27 -80q-28 -20 -59 -20q-92 0 -92 96v1292z"/>
<glyph glyph-name="uni004A" horiz-adv-x="720" unicode="J" d="M461 1380q0 41 26 68q28 25 62 25q92 0 92 -93v-999q0 -209 -106 -313q-84 -80 -224 -80q-159 0 -274 80q-53 41 -53 79q0 76 71 76q31 0 49 -8l58 -37l55 -24q41 -11 86 -11q158 0 158 201v1036z"/>
<glyph glyph-name="uni004B" horiz-adv-x="1140" unicode="K" d="M121 1376q0 41 24 70q25 27 64 27q90 0 90 -93v-536l645 592q40 37 80 37q35 0 53 -23q23 -23 23 -61q0 -41 -35 -76l-600 -541l663 -641q31 -20 31 -72q0 -34 -26.5 -54.5t-61.5 -20.5q-45 0 -90 45l-682 667v-616q0 -92 -90 -92q-33 0 -59 24q-29 25 -29 68v1296z"/>
<glyph glyph-name="uni004C" horiz-adv-x="755" unicode="L" d="M121 1376q0 45 26 72q29 25 66 25q86 0 86 -105v-1200h369q47 0 75 -21q29 -22 29 -59q0 -88 -76 -88h-491q-29 0 -58 25q-26 26 -26 84v1267z"/>
<glyph glyph-name="uni004D" horiz-adv-x="1705" unicode="M" d="M272 1348q13 61 47 96q41 33 89 33q52 0 86 -25q30 -22 47 -76l311 -1069l315 1077q28 93 129 93q60 0 95 -33q36 -33 45 -88l213 -1252q0 -120 -88 -120q-80 0 -93 79l-168 1180l-356 -1188q-22 -71 -88 -71q-29 0 -55.5 20.5t-36.5 50.5l-352 1188l-172 -1188 q-2 -35 -33 -61q-27 -27 -68 -27q-37 0 -61 35q-23 35 -23 70l4 41z"/>
<glyph glyph-name="uni004E" horiz-adv-x="1363" unicode="N" d="M121 1380q0 97 76 97q59 0 102 -62l766 -1100l2 1061q0 41 25 70q20 27 63 27q37 0 66 -25q26 -25 26 -72v-1300q0 -92 -80 -92q-61 0 -100 57l-768 1104v-1069q0 -39 -26.5 -63.5t-63.5 -24.5q-33 0 -59 24q-29 25 -29 68v1300z"/>
<glyph glyph-name="uni004F" horiz-adv-x="1400" unicode="O" d="M256 731q0 -321 182 -493q101 -95 267 -95q151 0 264 97q100 84 149 237q35 115 35 254t-35 256q-67 217 -237 295q-80 35 -176 35q-271 0 -390 -270q-59 -138 -59 -316zM63 727q0 193 72 358q76 181 227 285q146 103 343 103q303 0 471 -222q79 -100 122 -237 q45 -137 45 -287q0 -434 -296 -639q-144 -100 -342 -100q-181 0 -324 92q-141 88 -231 264q-87 176 -87 383z"/>
<glyph glyph-name="uni0050" horiz-adv-x="1064" unicode="P" d="M299 1305v-605h256q135 0 223 88q86 89 86 220q0 141 -84 219t-217 78h-264zM121 1364q0 40 24 68q25 28 64 28h362q93 0 181 -30q90 -29 147 -84q145 -134 145 -342q0 -86 -34 -175q-39 -94 -95 -149q-59 -59 -143 -98q-88 -37 -174 -37h-299v-469q0 -88 -90 -88 q-33 0 -59 24q-29 25 -29 68v1284z"/>
<glyph glyph-name="uni0051" horiz-adv-x="1400" unicode="Q" d="M256 731q0 -321 182 -493q101 -95 267 -95q174 0 290 117l-131 127q-24 25 -33 66q0 24 23 53q29 22 53 22q39 0 70 -24l106 -109q70 152 70 336q0 139 -35 256q-67 217 -237 295q-80 35 -176 35q-271 0 -390 -270q-59 -138 -59 -316zM63 727q0 193 72 358 q76 181 227 285q146 103 343 103q303 0 471 -222q79 -100 122 -237q45 -137 45 -287q0 -137 -32 -248q-33 -114 -94 -211l167 -168q17 -16 17 -57q0 -27 -20.5 -47.5t-59.5 -20.5q-34 0 -61 25l-148 143q-170 -155 -407 -155q-181 0 -324 92q-141 88 -231 264 q-87 176 -87 383z"/>
<glyph glyph-name="uni0052" horiz-adv-x="1064" unicode="R" d="M121 1364q0 40 24 68q25 28 64 28h350q242 0 371 -192q65 -101 65 -244q0 -47 -10 -92q-6 -37 -33 -86q-65 -141 -239 -180q-80 -19 -193 -19l467 -512q37 -34 37 -80q0 -63 -84 -63q-51 0 -84 37l-557 612v-565q0 -39 -26.5 -63.5t-63.5 -24.5q-33 0 -59 24 q-29 25 -29 68v1284zM299 1305v-521h254q195 0 242 127q20 50 20 138q0 75 -35 135q-71 121 -235 121h-246z"/>
<glyph glyph-name="uni0053" horiz-adv-x="946" unicode="S" d="M784 1397q60 -41 60 -97q0 -33 -25 -55q-28 -24 -59 -24q-35 10 -101 39l-98 45q-33 12 -82 12q-205 0 -235 -213q0 -132 172 -197l119 -43l147 -55q12 -4 61 -29q15 -8 58 -37q53 -34 88 -92q55 -90 55 -206.5t-59 -223.5q-58 -104 -164 -166q-115 -67 -268 -67 q-105 0 -211 30q-201 60 -201 150q0 88 80 88q24 0 51 -16q145 -97 303 -97q72 0 137 39q136 96 136 246q0 74 -43 129q-35 47 -101 84q-47 27 -174 70l-127 45q-78 39 -131 80q-57 49 -84 100q-33 59 -33 151q0 109 66 203q63 84 165.5 133.5t205.5 49.5q186 0 292 -76z "/>
<glyph glyph-name="uni0054" horiz-adv-x="872" unicode="T" d="M365 1292h-281q-39 0 -59 25q-21 20 -25 59q0 37 25 60q28 24 63 24h731q88 0 88 -84t-80 -84h-282v-1212q0 -39 -26.5 -65.5t-65.5 -26.5q-33 0 -60 26q-28 25 -28 66v1212z"/>
<glyph glyph-name="uni0055" horiz-adv-x="1363" unicode="U" d="M121 1380q0 41 26 68q28 25 62 25q90 0 90 -93v-876q0 -138 80 -234q45 -53 113 -86q94 -41 204 -41q228 0 330 176q45 78 45 185v876q0 37 23 66q20 27 61 27q37 0 66 -25q26 -25 26 -68v-817q0 -366 -246 -506q-120 -69 -309 -69q-143 0 -254 41q-211 82 -282 297 q-35 110 -35 233v821z"/>
<glyph glyph-name="uni0056" horiz-adv-x="1140" unicode="V" d="M0 1401q0 35 22.5 63.5t57.5 28.5q33 0 61 -23q29 -24 43 -69l383 -1108l389 1112q25 72 97 72q80 0 80 -88l-9 -50l-452 -1263q-13 -33 -41 -72q-23 -16 -60 -16q-71 0 -100 80z"/>
<glyph glyph-name="uni0057" horiz-adv-x="1669" unicode="W" d="M1436 109q-9 -60 -47 -95q-41 -34 -93 -34q-47 0 -79 26q-35 29 -50 70l-311 1073l-315 -1077q-29 -92 -133 -92q-50 0 -88.5 34.5t-47.5 85.5l-213 1252q0 64 25 92q25 29 59 29q86 0 97 -80l168 -1180l356 1188q22 72 84 72q74 0 96 -72l352 -1188l172 1188 q15 88 97 88q84 0 84 -109v-37z"/>
<glyph glyph-name="uni0058" horiz-adv-x="1216" unicode="X" d="M504 784l-383 539q-25 45 -33 78q0 29 25 51q22 21 55 21q58 0 92 -50l348 -508l348 508q35 50 88 50q34 0 56 -19q20 -18 20 -57q0 -40 -24 -74l-383 -539l463 -653q24 -33 24 -72q0 -71 -84 -71q-47 0 -80 45l-428 608l-428 -608q-26 -45 -84 -45q-24 0 -53 22 q-23 23 -27 53q7 28 25 62z"/>
<glyph glyph-name="uni0059" horiz-adv-x="985" unicode="Y" d="M424 688l-399 647l-25 66q0 29 25 51q22 21 55 21q57 0 88 -50l344 -559l344 555q35 54 84 54q80 0 80 -76q0 -29 -16 -58l-400 -651v-604q0 -100 -92 -100q-33 0 -61 28q-27 27 -27 72v604z"/>
<glyph glyph-name="uni005A" horiz-adv-x="1140" unicode="Z" d="M831 1305h-663q-76 0 -88 75q9 80 92 80h801q94 0 94 -71q0 -31 -35 -84l-764 -1149h740q41 0 63 -23q21 -18 21 -53t-25 -57q-29 -23 -63 -23h-857q-95 0 -104 80q2 37 29 76z"/>
<glyph glyph-name="uni005B" horiz-adv-x="456" unicode="[" d="M156 1372q0 101 96 101h139q80 0 80 -80q0 -68 -76 -76h-71v-1329h67q35 0 57.5 -22.5t22.5 -57.5q0 -76 -86 -76h-133q-41 0 -68 27q-28 28 -28 69v1444z"/>
<glyph glyph-name="uni005C" horiz-adv-x="831" unicode="\" d="M37 1401q0 76 76 76q63 0 88 -54l583 -1310q13 -28 13 -62q0 -71 -76 -71q-57 0 -84 57z"/>
<glyph glyph-name="uni005D" horiz-adv-x="456" unicode="]" d="M336 -68q0 -100 -92 -100h-144q-80 0 -80 80q0 31 23 53.5t53 22.5h72v1329h-68q-67 0 -84 80q9 76 93 76h131q96 0 96 -97v-1444z"/>
<glyph glyph-name="uni005E" horiz-adv-x="1228" unicode="^" d="M129 709l391 700q37 68 92 68q60 0 101 -72l391 -696q12 -22 12 -50q0 -59 -76 -71q-51 8 -79 63l-345 641l-356 -651q-24 -45 -76 -53q-24 0 -45 20q-24 21 -26 51z"/>
<glyph glyph-name="uni005F" horiz-adv-x="1024" unicode="_" d="M0 -256q-63 0 -63 59q0 23 16 33q12 12 43 12h1028q31 0 47 -16q16 -12 16 -37q0 -51 -63 -51h-1024z"/>
<glyph glyph-name="uni0060" horiz-adv-x="415" unicode="`" d="M465 1688q-59 24 -66 75q0 35 27 60q28 24 61 24l33 -4l273 -114q67 -28 67 -80q0 -64 -88 -76l-22 6l-25 4z"/>
<glyph glyph-name="uni0061" horiz-adv-x="1140" unicode="a" d="M852 1016q4 45 27 65q22 23 57 23t61 -23q23 -22 23 -69v-932q0 -92 -84 -92q-35 0 -59.5 24.5t-24.5 59.5v80q-123 -164 -289 -164q-227 0 -364 168q-127 157 -127 385q0 356 250 501q108 62 219 62q184 0 307 -148zM252 545q0 -238 131 -344q70 -58 158 -58 q164 0 239 125q68 108 68 277q0 254 -141 354q-68 49 -154 49q-147 0 -223 -117q-35 -51 -58 -126q-20 -74 -20 -160z"/>
<glyph glyph-name="uni0062" horiz-adv-x="1140" unicode="b" d="M307 956q119 148 297 148q139 0 246 -76q101 -74 160 -203q57 -123 57 -284q0 -244 -131 -396q-65 -76 -154 -116q-92 -41 -198 -41q-195 0 -273 147l-4 -57q-2 -41 -26 -66q-27 -24 -66 -24q-33 0 -59 26q-27 25 -27 66v1409q0 94 86 94q39 0 68 -22q24 -25 24 -68v-537 zM889 549q0 227 -133 342q-66 57 -156 57q-186 0 -272 -182q-43 -90 -43 -213l4 -4q0 -236 135 -346q72 -60 180 -60q92 0 162 64q63 57 94 149q29 97 29 193z"/>
<glyph glyph-name="uni0063" horiz-adv-x="907" unicode="c" d="M848 1004q8 -19 8 -39q0 -64 -80 -76l-61 20l-84 27q-4 2 -14.5 2t-16.5 2q-20 4 -37 4q-194 0 -270 -199q-41 -106 -41 -186q0 -162 61 -268q70 -129 219 -148q19 0 31 -4l49 6l41 13l43 16l39 19q25 12 45 12q29 0 49 -21q19 -21 19 -55q0 -77 -92 -111 q-88 -30 -193 -30q-297 0 -428 266q-63 127 -63 266q0 105 28 215q62 234 242 322q94 47 213 47q229 0 293 -100z"/>
<glyph glyph-name="uni0064" horiz-adv-x="1140" unicode="d" d="M831 1493q5 90 89 90q92 0 92 -94v-1409q0 -92 -92 -92q-33 0 -60 26q-29 29 -29 64v57q-86 -147 -276 -147q-295 0 -422 268q-61 133 -61 285q0 233 129 397q67 82 145 123q84 43 186 43q185 0 295 -148zM252 549q0 -160 63 -268q76 -138 222 -138q215 0 284 211 q33 86 33 191q0 127 -39 213q-39 88 -106 139q-70 51 -156 51q-100 0 -166 -57q-68 -57 -100 -154q-35 -100 -35 -188z"/>
<glyph glyph-name="uni0065" horiz-adv-x="1064" unicode="e" d="M231 612h600q0 146 -77 242q-76 94 -213.5 94t-218.5 -88q-91 -96 -91 -248zM283 1024q114 80 249 80q287 0 418 -279q62 -129 62 -262q0 -88 -101 -88h-680q0 -209 166 -293q76 -39 166 -39q160 0 293 113q39 33 68 33q63 0 63 -76q0 -37 -26 -66q-64 -71 -189 -118 q-113 -41 -219 -41q-249 0 -387 184q-64 86 -90 182q-29 103 -29 191l2 8q2 135 66 266q61 131 168 205z"/>
<glyph glyph-name="uni0066" horiz-adv-x="491" unicode="f" d="M176 936h-76q-45 0 -66.5 20.5t-21.5 56.5v7q4 72 92 72h72v260q0 102 68 164q73 65 168 67h7q152 0 152 -84q0 -26 -22 -49q-29 -23 -70 -23h-55q-68 0 -68 -79v-256h115q84 0 88 -72v-7q0 -36 -21.5 -56.5t-66.5 -20.5h-115v-856q0 -39 -26.5 -65.5t-65.5 -26.5 q-34 0 -61 24q-27 27 -27 68v856z"/>
<glyph glyph-name="uni0067" horiz-adv-x="1140" unicode="g" d="M831 143q-43 -69 -118 -112q-78 -43 -176 -43q-125 0 -238 78q-111 75 -168 200q-59 131 -59 287q0 74 16 152q18 83 45 135q129 264 422 264q201 0 272 -152l4 60q3 45 29 67q23 21 60 21q92 0 92 -92v-932q0 -154 -56 -269q-53 -110 -165 -182q-113 -69 -263 -69 q-182 0 -340 96q-79 49 -88 112q13 64 72 76q43 -6 64 -14q47 -29 106 -64q41 -20 64 -28q67 -23 131 -23q151 0 231 125q66 107 66 266v21zM252 545q0 -236 133 -344q70 -58 156 -58q153 0 237 121q74 109 74 268q0 238 -137 355q-71 61 -178 61q-93 0 -160 -61 q-64 -53 -94 -148q-31 -96 -31 -194z"/>
<glyph glyph-name="uni0068" d="M121 1489q0 94 88 94q41 0 65 -24q25 -23 25 -70l4 -528q111 143 293 143q229 0 338 -201q49 -92 49 -203v-620q0 -39 -24.5 -65.5t-65.5 -26.5q-33 0 -59 24q-29 25 -29 68v596q0 117 -66 194q-67 78 -184 78q-147 0 -219 -121q-37 -61 -37 -147v-600q0 -92 -90 -92 q-33 0 -59 24q-29 25 -29 68v1409z" unicode="h"/>
<glyph glyph-name="uni0069" horiz-adv-x="415" unicode="i" d="M209 1247q-47 0 -80 33q-33 39 -33 80t33 80q35 33 80 33q47 0 78 -33q32 -33 32 -80t-32.5 -80t-77.5 -33zM121 1008q0 45 26 69q25 27 62 27q35 0 63 -23q27 -24 27 -69v-932q0 -92 -90 -92q-33 0 -59 24q-29 25 -29 68v928z"/>
<glyph glyph-name="uni006A" horiz-adv-x="415" unicode="j" d="M209 1247q-47 0 -80 33q-33 39 -33 80t33 80q35 33 80 33q47 0 78 -33q32 -33 32 -80t-32.5 -80t-77.5 -33zM121 1008q0 45 26 69q25 27 62 27q35 0 63 -23q27 -24 27 -69v-1360q0 -96 -90 -96q-33 0 -59 26q-29 25 -29 70v1356z"/>
<glyph glyph-name="uni006B" horiz-adv-x="907" unicode="k" d="M121 1493q0 43 26 63q23 23 62 23q37 0 65 -23q25 -21 25 -67v-772l422 354q35 29 72 29q75 0 75 -84q0 -37 -32 -64l-420 -331l481 -474q35 -34 35 -88q0 -71 -76 -71q-47 0 -92 45l-465 483v-436q0 -92 -90 -92q-33 0 -59 24q-29 25 -29 68v1413z"/>
<glyph glyph-name="uni006C" horiz-adv-x="415" unicode="l" d="M121 1485q0 94 88 94q41 0 67 -23q23 -22 23 -67v-1405q0 -96 -90 -96q-33 0 -59 26q-29 25 -29 70v1401z"/>
<glyph glyph-name="uni006D" horiz-adv-x="1703" unicode="m" d="M121 1016q0 37 29 59q26 25 63 25q86 0 86 -92v-35q111 131 285 131q186 0 293 -184q135 184 344 184q98 0 186 -49q184 -101 184 -346v-633q0 -37 -26 -64q-29 -24 -66 -24q-33 0 -59 24q-29 29 -29 64v620q0 84 -27 135q-55 117 -200 117q-101 0 -172 -59 q-68 -58 -68 -193v-620q0 -39 -26 -60q-29 -24 -66 -24q-33 0 -59 24q-29 23 -29 60v612q0 133 -63.5 196.5t-168.5 63.5q-135 0 -200 -104q-33 -51 -33 -135v-633q0 -88 -90 -88q-33 0 -59 24q-29 25 -29 64v940z"/>
<glyph glyph-name="uni006E" d="M121 1008q0 45 26 69q25 27 62 27q39 0 65 -23q25 -24 25 -73v-43l4 -4q51 69 129 106q76 37 168 37q230 0 332 -184q51 -91 51 -232v-608q0 -37 -27 -64q-24 -24 -63 -24q-33 0 -59 24q-29 23 -29 64v604q0 121 -76 190q-72 70 -176 70q-68 0 -123 -26q-53 -27 -94 -93 q-37 -63 -37 -145v-600q0 -96 -86 -96q-37 0 -63 26q-29 29 -29 70v928z" unicode="n"/>
<glyph glyph-name="uni006F" d="M72 545q0 157 61 286q62 132 172 201q115 72 248 72q141 0 254 -76q111 -76 168 -205q57 -123 57 -278q0 -324 -223 -479q-113 -78 -256 -78q-221 0 -358 174q-123 157 -123 383zM252 545q0 -148 73.5 -275t223.5 -127q98 0 168 54q63 51 100 145q35 98 35 203 q0 102 -35 203q-35 92 -98 143q-70 57 -166 57q-98 0 -162 -49q-65 -51 -102 -147.5t-37 -206.5z" unicode="o"/>
<glyph glyph-name="uni0070" horiz-adv-x="1140" unicode="p" d="M307 -348q-4 -109 -88 -109q-33 0 -61 29q-29 33 -29 76v1360q0 45 27 69q24 27 59 27q39 0 65.5 -20.5t26.5 -71.5v-56q83 148 277 148q116 0 196 -39q181 -86 252 -287q35 -108 35 -225q0 -334 -219 -492q-105 -73 -244 -73q-182 0 -293 147zM889 545q0 143 -51 246 q-78 157 -234 157q-211 0 -282 -207q-33 -92 -33 -192q0 -160 67 -273q80 -137 228 -137l16 4q80 0 156 60q96 80 125 239q8 41 8 103z"/>
<glyph glyph-name="uni0071" horiz-adv-x="1140" unicode="q" d="M831 135h-8q-32 -45 -51 -61q-20 -21 -70 -47q-71 -39 -170 -39q-133 0 -239 75q-111 78 -170 218q-55 125 -55 272q0 141 59 270q59 135 176 211q107 70 250 70q109 0 178.5 -45t95.5 -103l4 56q5 45 27 69q27 23 62 23q92 0 92 -96v-1360q0 -47 -29 -76 q-25 -29 -68 -29q-84 0 -84 109v483zM252 545q0 -111 33 -201q33 -89 98 -141q78 -60 158 -60q184 0 268 183q41 92 41 211q0 96 -35 194q-33 96 -102 158q-72 59 -181 59q-86 0 -155 -61q-125 -107 -125 -342z"/>
<glyph glyph-name="uni0072" horiz-adv-x="641" unicode="r" d="M121 1008q0 41 26 67q28 25 62 25q39 0 63 -25q27 -20 27 -67v-93q55 84 109 129q69 60 137 60q43 0 73 -25q29 -28 29 -67q0 -49 -41 -74q-16 -14 -84 -33q-53 -10 -78 -24q-145 -84 -145 -273v-528q0 -92 -86 -92q-37 0 -63 26q-29 25 -29 70v924z"/>
<glyph glyph-name="uni0073" horiz-adv-x="907" unicode="s" d="M96 109q-43 36 -49 88q0 30 23 57q22 22 55 22q31 0 51 -14q25 -10 66 -43l55 -35q16 -10 72 -28q40 -13 80 -13q88 0 147 33q76 39 76 117q0 69 -84 123q-64 37 -158 73l-98 41l-76 35q-65 34 -111 92q-49 60 -49 144q0 168 170 258q82 45 187 45q92 0 196 -35 q105 -39 137 -74q41 -41 41 -84q0 -24 -22 -53q-27 -22 -57 -27q-41 13 -103 48l-96 53q-21 8 -35 10q-21 6 -43 6q-76 0 -131 -30q-68 -33 -68 -107q11 -49 47 -86l31 -25q22 -15 56 -30q15 -10 73 -31q6 -2 51 -18l99 -37q227 -86 227 -277q0 -84 -53 -162 q-51 -73 -129 -112q-88 -45 -221 -45q-205 0 -357 121z"/>
<glyph glyph-name="uni0074" horiz-adv-x="491" unicode="t" d="M176 936h-80q-40 0 -61 25q-27 20 -27 51v6q0 34 21.5 54t66.5 20h80v243q0 43 27 64q22 20 61 20q92 0 92 -88v-239h80q41 0 64 -23q20 -22 20 -57q0 -29 -20 -51q-22 -25 -56 -25h-88v-860q0 -37 -28 -66q-29 -22 -68 -22q-33 0 -57 24q-27 21 -27 68v856z"/>
<glyph glyph-name="uni0075" d="M121 1012q0 92 88 92q35 0 63 -23q27 -24 27 -69v-596q0 -127 63 -199q64 -74 187 -74q256 0 256 273v596q0 92 88 92q37 0 63.5 -20.5t26.5 -71.5v-600q0 -252 -190 -365q-101 -59 -248 -59q-275 0 -377 213q-47 100 -47 211v600z" unicode="u"/>
<glyph glyph-name="uni0076" horiz-adv-x="872" unicode="v" d="M4 1032q0 37 25 64q24 24 59 24q72 0 96 -76l252 -768l256 768q21 64 84 64q37 0 64 -21q24 -22 24 -63l-8 -43l-324 -918q-14 -34 -36 -57q-21 -18 -60 -18q-63 0 -92 71z"/>
<glyph glyph-name="uni0077" horiz-adv-x="1515" unicode="w" d="M0 1020q0 37 27 57q22 23 61 23q78 0 96 -64l244 -772l240 764q16 41 39 62q22 22 53 22q63 0 92 -84l244 -760l239 756q29 80 97 80q84 0 84 -88q0 -25 -9 -43l-307 -897q-31 -88 -100 -88q-41 0 -62 20q-27 34 -43 80l-231 727l-232 -711q-20 -71 -45 -92 q-27 -24 -67 -24q-35 0 -64 22q-22 27 -45 86z"/>
<glyph glyph-name="uni0078" horiz-adv-x="946" unicode="x" d="M373 575l-289 377q-25 31 -33 76q0 33 25 53q22 23 55 23q51 0 78 -39l266 -356l264 352q35 43 76 43q78 0 78 -84q0 -29 -25 -64l-288 -381l327 -428q37 -45 37 -100q0 -31 -20.5 -51.5t-55.5 -20.5q-49 0 -96 62l-297 412l-299 -416q-33 -45 -88 -45q-29 0 -53 24 q-27 25 -27 56q10 53 35 84z"/>
<glyph glyph-name="uni0079" horiz-adv-x="872" unicode="y" d="M369 41l-336 979q0 80 84 80q71 0 92 -64l248 -747l252 751q20 64 84 64q84 0 84 -88q0 -25 -9 -43l-473 -1346q-16 -45 -37 -59q-26 -21 -61 -21q-33 0 -49 23q-25 24 -25 61l13 58z"/>
<glyph glyph-name="uni007A" horiz-adv-x="907" unicode="z" d="M143 1092h617q86 0 86 -64q0 -39 -35 -92l-530 -780h503q88 0 88 -80q0 -35 -26.5 -55.5t-61.5 -20.5h-655q-43 0 -68 10q-26 10 -28 41q8 51 47 109l520 776h-461q-35 0 -59 25q-25 26 -25 51q0 80 88 80z"/>
<glyph glyph-name="uni007B" horiz-adv-x="528" unicode="{" d="M135 655v-8q189 0 189 -278v-301q0 -86 53 -105q16 -10 59 -10q29 0 72 -16q16 -11 16 -46q0 -59 -80 -59h-88q-92 0 -145 59q-55 60 -55 150v315q0 97 -17 140q-20 63 -100 86q-72 18 -72 69q0 60 76 74q47 10 70 35q30 35 41 121q2 14 2 67v316q0 92 55 149 q55 60 145 60h88q80 0 80 -64q0 -35 -20 -47q-23 -14 -70 -14q-43 0 -57 -9q-53 -18 -53 -102v-301q0 -281 -189 -281z"/>
<glyph glyph-name="uni007C" horiz-adv-x="456" unicode="|" d="M143 1503q0 37 25 58q25 18 59 18q84 0 84 -80v-1431q0 -35 -24 -60q-27 -20 -60 -20q-34 0 -59 24.5t-25 59.5v1431z"/>
<glyph glyph-name="uni007D" horiz-adv-x="528" unicode="}" d="M356 647v8q-98 9 -143 88q-45 78 -45 193v301q0 84 -51 102q-22 13 -62 13q-45 0 -65 12q-23 10 -23 47q0 27 27 45q26 17 53 17h92q90 0 146 -60q51 -57 51 -149l4 -316q4 -117 22 -157q25 -54 95 -68q67 -14 67 -76q0 -41 -65 -63q-76 -27 -97 -66q-18 -41 -22 -162 l-4 -315q0 -90 -53.5 -149.5t-143.5 -59.5h-92q-80 0 -80 59q0 37 23 48q20 14 67 14q47 4 60 10q51 19 51 105v301q0 110 43 190q45 80 145 88z"/>
<glyph glyph-name="uni007E" horiz-adv-x="1228" unicode="~" d="M131 432q0 96 105 174q75 58 159 58q97 0 238 -68q137 -68 194 -68q27 0 50 17q28 28 47 51q49 68 104 68q31 0 51.5 -14.5t20.5 -41.5q0 -126 -142 -202q-59 -33 -127 -33q-95 0 -239 67l-121 58q-29 14 -68 14q-30 0 -47 -16l-47 -52q-20 -28 -51 -55q-22 -16 -53 -16 q-29 0 -51 18q-23 17 -23 41z"/>
<glyph glyph-name="uni00A1" horiz-adv-x="567" unicode="¡" d="M303 1100q105 0 105 -105q0 -41 -31 -71q-34 -31 -74 -31q-37 0 -71.5 30.5t-34.5 71.5q0 43 32 74q31 31 74 31zM213 608q0 37 27 64q26 24 59 24q92 0 92 -92v-897q0 -88 -92 -88q-86 0 -86 88v901z"/>
<glyph glyph-name="uni00A2" horiz-adv-x="907" unicode="¢" d="M553 143q70 0 86 9l96 41q27 12 45 12q29 0 49 -21q19 -21 19 -55q0 -78 -96 -113q-93 -28 -199 -28v-113q0 -16 -14 -29q-17 -10 -35 -10q-39 0 -39 43v117q-262 55 -350 315q-43 123 -43 269q0 67 14 127q16 67 39 114q16 43 63 103q45 59 76 82q82 67 201 90v121 q0 38 39 38q49 0 49 -43v-112q98 0 203 -29q100 -27 100 -106q0 -64 -80 -76l-80 29l-73 22q-7 0 -17 1t-16 3q-21 4 -37 4v-805zM465 932q-213 -86 -213 -373q0 -129 47 -233q58 -123 166 -166v772z"/>
<glyph glyph-name="uni00A3" horiz-adv-x="1216" unicode="£" d="M356 647h-213q-73 0 -88 80q0 39 25 64q22 24 63 24h164q-102 174 -102 293q0 133 110 238q52 47 129 81q103 46 220 46q108 0 215 -58q217 -117 241 -291q0 -49 -22 -71q-13 -11 -74 -33q-33 4 -47 24q-21 25 -41 68q-51 107 -112.5 150t-180.5 43q-111 0 -180 -58 q-76 -61 -76 -168q0 -53 23 -98l86 -166h272q37 0 59 -22q21 -21 21 -62q0 -84 -80 -84h-231q12 -49 12 -119q0 -182 -172 -360h694q84 0 84 -84t-84 -84h-848q-39 0 -59 20q-25 17 -29 52q10 53 49 96l97 100q92 111 92 252q0 41 -17 127z"/>
<glyph glyph-name="uni00A4" d="M139 1036l-76 80q-20 23 -22 47q0 29 22.5 51.5t49.5 22.5q28 0 39 -16l88 -93q51 52 137 80.5t176 28.5q100 0 172 -27q78 -26 131 -82l92 93q17 16 39 16q25 0 47 -23q19 -21 19 -55q0 -26 -17 -43l-80 -80q101 -112 101 -309q0 -184 -101 -303l80 -80q21 -20 21 -51 q0 -65 -74 -74q-18 2 -35 17l-92 96q-115 -113 -307 -113q-187 0 -305 113l-92 -88q-19 -19 -43 -25q-19 0 -41 25q-21 20 -25 53q6 33 20 47l76 80q-43 53 -71 135q-27 78 -27 166q0 78 29 174q28 90 69 137zM553 377q187 0 289 172q47 82 47 182q0 209 -166 307 q-76 45 -170 45q-78 0 -164 -41q-180 -86 -180 -311q0 -82 41 -168q43 -88 119 -137t184 -49z" unicode="¤"/>
<glyph glyph-name="uni00A5" d="M461 537v145l-285 -2q-41 0 -61 20q-25 21 -27 48q6 67 84 67h205l-340 520q-17 37 -25 66q0 31 23 49q22 23 53 23q53 0 92 -58l369 -551l362 545q43 64 101 64q67 0 67 -72q0 -21 -18 -66l-336 -520h199q80 0 80 -67q0 -29 -21 -48q-20 -20 -59 -20h-283v-143h283 q80 0 80 -68q0 -33 -23 -49q-18 -21 -61 -21h-279v-317q0 -94 -92 -94q-33 0 -60 26q-28 29 -28 68v317h-289q-70 0 -80 66q6 72 80 72h289z" unicode="¥"/>
<glyph glyph-name="uni00A6" horiz-adv-x="319" unicode="¦" d="M160 1485q0 39 22.5 61.5t53 22.5t53.5 -19q18 -22 18 -51v-1452q0 -72 -76 -72q-28 0 -49 21q-22 22 -22 51v1438z"/>
<glyph glyph-name="uni00A7" horiz-adv-x="1140" unicode="§" d="M465 809q-107 -39 -164 -102q-27 -27 -45 -68q-20 -39 -20 -72q0 -125 192 -219l297 -147q178 127 178 268q0 139 -168 215zM307 903q-135 80 -135 238q0 92 59 174q58 74 144 112q92 46 237 46q244 0 359 -160q51 -70 57 -142q0 -106 -84 -106q-49 0 -90 72 q-57 104 -68 112q-36 37 -88 54q-43 14 -123 14q-92 0 -157 -49q-66 -54 -66 -123q6 -66 60 -113q57 -49 231 -131l145 -67l91 -48q71 -41 135 -118q65 -82 65 -203q0 -135 -96 -248q-49 -57 -123 -100q131 -94 131 -238q0 -82 -49 -155q-46 -71 -141 -117 q-105 -51 -230 -51q-231 0 -383 139q-75 69 -84 133l-4 31q0 45 25 69q22 25 59 29q66 -6 97 -70q47 -96 112 -137q58 -39 174 -39q97 0 160 33q82 43 82 131q0 94 -98 150q-78 45 -215 102q-164 70 -220 100q-149 82 -204 224q-21 53 -21 104q0 117 76 211q68 88 180 137z "/>
<glyph glyph-name="uni00A8" horiz-adv-x="415" unicode="¨" d="M289 1348q0 49 30 82q31 30 80 30q47 0 82 -30q31 -33 31 -82q0 -43 -33 -76t-80 -33q-45 0 -77.5 33t-32.5 76zM-92 1348q0 49 33 82q30 30 79 30q46 0 78 -30q31 -33 31 -82q0 -43 -33 -76q-30 -33 -76 -33t-79 31q-33 33 -33 78z"/>
<glyph glyph-name="uni00A9" horiz-adv-x="1640" unicode="©" d="M819 -12q-196 0 -366 100q-172 100 -275 272q-102 170 -102 367q0 201 100 371q100 172 270 274q168 101 373 101q201 0 373 -99q170 -98 272 -270q101 -170 101 -377q0 -203 -101 -371q-102 -174 -274 -270q-172 -98 -371 -98zM819.5 139q155.5 0 288.5 78 q131 78 207 215q78 139 78 295q0 163 -74 295q-82 141 -211 217q-133 78 -289 78q-321 0 -493 -291q-82 -139 -82 -299t75 -291q76 -133 213 -217q132 -80 287.5 -80zM555 731q0 -78 35 -158q33 -73 94 -114q66 -43 139 -43q97 0 138 35q14 10 81 90q56 63 82 63 q68 0 68 -55q0 -53 -62 -125q-55 -62 -108 -92q-84 -51 -199 -51q-190 0 -315 131q-121 127 -121 319q0 125 51 227q56 115 156 172q96 58 229 58q103 0 164 -27q28 -9 62 -31l51 -40q30 -27 41 -41q6 -9 33 -54q18 -40 18 -67q0 -60 -68 -60q-34 0 -63 35l-53 68 q-33 41 -68 59q-41 23 -117 23q-172 0 -237 -154q-31 -74 -31 -168z"/>
<glyph glyph-name="uni00AA" horiz-adv-x="739" unicode="ª" d="M377 1348q-78 0 -125 -68q-43 -63 -43 -143q0 -82 43 -144q45 -69 125 -69t129 67q43 62 43 146q0 55 -23 104q-24 55 -61 80q-39 27 -88 27zM59 1141q0 82 45 164q43 84 107 122q70 46 158 46q112 0 172 -84l4 -5v35q0 54 67.5 54t67.5 -54v-563q0 -52 -68 -55 q-67 0 -67 51v37q-64 -88 -185 -88q-135 0 -221 104q-80 99 -80 236z"/>
<glyph glyph-name="uni00AB" horiz-adv-x="796" unicode="«" d="M399 549l205 366q29 54 76 54q31 0 51 -21q25 -21 25 -49t-25 -68l-168 -282l176 -293q17 -29 17 -59q0 -56 -80 -68q-37 0 -68 51zM76 549l205 366q30 54 71 54q25 0 51 -23q25 -21 25 -49q0 -33 -20 -66l-168 -282l176 -293q16 -45 16 -55q0 -60 -84 -72q-43 0 -63 51z "/>
<glyph glyph-name="uni00AC" horiz-adv-x="1228" unicode="¬" d="M965 647h-789q-33 0 -57 25q-27 26 -27 59q0 31 24.5 57.5t55.5 26.5h877q84 0 84 -88v-428q0 -37 -27 -57q-29 -23 -57 -23q-84 0 -84 84v344z"/>
<glyph glyph-name="uni00AD" horiz-adv-x="681" unicode="­" d="M66 440v181h552v-181h-552z"/>
<glyph glyph-name="uni00AE" horiz-adv-x="1640" unicode="®" d="M819 143q157 0 289 80q129 76 213 215q76 131 76 289q0 164 -76 295q-77 132 -215 215q-131 80 -287 80q-151 0 -284 -80q-136 -82 -211 -213q-80 -139 -80 -297t75 -289q76 -135 213 -215q140 -80 287 -80zM819 -12q-201 0 -370 98q-173 100 -273 272q-100 168 -100 369 q0 311 217 528q215 218 526 218q307 0 527 -220q104 -104 159 -235q56 -129 56 -291q0 -199 -97 -369q-98 -170 -272 -270q-168 -100 -373 -100zM647 780h158h4q4 0 17.5 1t27.5 1q90 4 127 43q27 27 27 82q0 113 -193 113h-168v-240zM780 655h-133v-295q0 -63 -67 -63 q-25 2 -45 20q-19 16 -19 43v744q0 41 43 41h272q115 0 176.5 -22.5t100.5 -78.5q33 -57 33 -145q0 -205 -209 -235l184 -283q17 -29 17 -49.5t-21 -26.5l-55 -8q-49 0 -80 47z"/>
<glyph glyph-name="uni00AF" horiz-adv-x="1130" unicode="¯" d="M-31 1567v129h1192v-129h-1192z"/>
<glyph glyph-name="uni00B0" horiz-adv-x="817" unicode="°" d="M238 1214q0 -67 49 -120q53 -50 119 -50q71 0 120 50q47 53 47 120.5t-49 118.5q-53 49 -118.5 49t-118.5 -49q-49 -49 -49 -119zM129 1214q0 117 80 197t196.5 80t196.5 -80t80 -197q0 -113 -80 -196q-80 -82 -196 -82q-113 0 -195 82t-82 196z"/>
<glyph glyph-name="uni00B1" horiz-adv-x="1228" unicode="±" d="M1057 0h-873q-39 0 -65.5 26.5t-26.5 57.5q0 29 27 61q28 23 65 23h873q40 0 61 -25q23 -26 23 -63q0 -25 -23 -53q-24 -27 -61 -27zM532 725v223q0 37 23 66q29 22 57 22q88 0 88 -88v-223h359q31 0 53 -25q21 -26 21 -63q0 -35 -23 -57q-18 -25 -57 -25h-353v-227 q0 -34 -24 -62q-25 -26 -60 -26q-84 10 -84 88v227h-348q-43 0 -67 25q-15 14 -17 20q-12 18 -12 41q2 39 29 61q22 23 67 23h348z"/>
<glyph glyph-name="uni00B2" horiz-adv-x="712" unicode="²" d="M268 721h312q71 0 71 -66q0 -59 -71 -59h-455q-55 0 -66 41q7 22 19 39l362 457q52 63 52 110t-39 78q-41 27 -93 27q-65 0 -118 -50q-54 -53 -54 -118q0 -21 -18 -33q-18 -17 -45 -19q-62 11 -62 72q0 123 93 201q90 72 213 72q116 0 188 -52q84 -59 84 -170 q0 -75 -78 -172z"/>
<glyph glyph-name="uni00B3" horiz-adv-x="712" unicode="³" d="M88 1276q22 197 264 197q103 0 174 -62q74 -63 74 -168q0 -53 -29 -104q-14 -27 -32 -41q-19 -19 -47 -37q86 -28 122.5 -80t36.5 -129q0 -121 -96 -195q-98 -73 -227 -73q-101 0 -168 49q-76 55 -92 127l-5 18l-4 19q11 67 58 67q37 0 55 -41q47 -98 113 -106l26 -4 l25 -4q61 0 113 36q57 39 57 99q0 76 -35 110q-31 37 -111 37q-88 0 -88 53q0 23 17 39q16 13 55 21q113 31 113 143q0 49 -39 76q-37 25 -90 25t-86 -25q-35 -25 -41 -72q0 -46 -62 -55q-51 6 -51 80z"/>
<glyph glyph-name="uni00B4" horiz-adv-x="415" unicode="´" d="M479 1737l242 98q18 8 47 8q35 0 59 -24q25 -22 25 -56q0 -47 -68 -75l-239 -101q-27 -10 -61.5 -10t-57.5 20.5t-27 51.5q11 61 80 88z"/>
<glyph glyph-name="uni00B5" d="M121 1012q0 92 88 92q35 0 63 -23q27 -24 27 -69v-580q0 -88 23 -156q20 -63 77 -98q64 -35 176 -35q146 0 189 84q41 82 41 201v584q0 92 88 92q37 0 63.5 -20.5t26.5 -71.5v-924q0 -100 -90 -100q-72 0 -84 59q-109 -59 -256 -59q-176 0 -254 98v-438 q0 -39 -26.5 -63.5t-63.5 -24.5q-31 0 -59.5 22.5t-28.5 61.5v1368z" unicode="µ"/>
<glyph glyph-name="uni00B6" horiz-adv-x="1228" unicode="¶" d="M496 705q-254 0 -375 176q-66 94 -66 211q0 227 238 323q108 45 256 45h424q94 0 94 -104v-1716q0 -80 -84 -80t-84 75v1688h-235v-1692q0 -33 -25 -55q-23 -20 -59 -20q-31 0 -58 22q-26 21 -26 57v1070z"/>
<glyph glyph-name="uni00B7" horiz-adv-x="491" unicode="·" d="M143 621q0 47 33 79q34 31 80 31t80 -31q33 -30 33 -79q0 -46 -33 -76q-33 -33 -80 -33q-45 0 -78 33q-35 35 -35 76z"/>
<glyph glyph-name="uni00B8" horiz-adv-x="415" unicode="¸" d="M379 0l-64 -88l45 8q50 0 97 -35q43 -32 43 -78q0 -176 -228 -176q-65 0 -104 21q-39 14 -43 51q0 57 39 57l51 -12l57 -8q72 0 72 55q0 31 -33 39q-6 2 -59 2t-59 35l20 53l55 76h111z"/>
<glyph glyph-name="uni00B9" horiz-adv-x="468" unicode="¹" d="M180 1335h-108q-52 0 -60 62q8 63 60 63h217q35 0 35 -28v-785q0 -51 -72 -63q-72 12 -72 63v688z"/>
<glyph glyph-name="uni00BA" horiz-adv-x="712" unicode="º" d="M360 801q-84 0 -161 47q-74 45 -115 123q-37 77 -37 166q0 198 148 290q71 46 165 46q194 0 277 -166q35 -74 35 -170q0 -199 -148 -291q-69 -45 -164 -45zM360 924q76 0 123 71q41 66 41 142q0 116 -80 184q-38 27 -84 27q-95 0 -147 -105q-20 -53 -20 -106 q0 -84 49 -150q49 -63 118 -63z"/>
<glyph glyph-name="uni00BB" horiz-adv-x="796" unicode="»" d="M432 549l-209 -369q-20 -51 -67 -51q-68 0 -80 68q6 24 20 59l176 293l-172 282l-24 66q2 25 26 49q27 23 50 23q47 0 75 -54zM756 549l-203 -369q-12 -21 -31 -37q-16 -14 -43 -14q-67 0 -80 68q9 39 21 59l178 293l-174 282l-25 66q2 25 27 49q18 23 49 23q49 0 78 -54 z"/>
<glyph glyph-name="uni00BC" horiz-adv-x="1648" unicode="¼" d="M1323 319v408l-240 -408h240zM1323 201h-367q-38 0 -45 43q13 47 33 75l328 496q40 62 104 62q49 0 72 -21q25 -20 25 -59v-478h47q28 0 42.5 -14t14.5 -45q0 -29 -14 -43q-17 -16 -39 -16h-51v-154q0 -27 -21 -45q-20 -14 -51 -14q-33 0 -53 18q-25 19 -25 45v150z M236 1335h-105q-49 0 -59 62q8 63 57 63h215q41 0 41 -28v-785q0 -53 -78 -63q-71 18 -71 63v688zM399 84l562 1348q24 57 71 57q29 0 49 -16q19 -19 19 -45.5t-25 -88.5l-547 -1306q-24 -62 -75 -62q-62 0 -72 54q2 4 3 13t1 13q2 6 14 33z"/>
<glyph glyph-name="uni00BD" horiz-adv-x="1648" unicode="½" d="M1133 125h315q68 0 68 -66q0 -59 -72 -59h-453q-57 0 -63 41l16 35l361 461q51 63 51 110t-37 78q-39 27 -90 27q-74 0 -125 -56q-51 -53 -51 -112q0 -45 -62 -52q-59 11 -59 72q0 126 92 203q84 70 213 70q114 0 184 -56q82 -57 82 -170q0 -88 -71 -172zM336 84 l561 1348q25 57 72 57q26 0 49 -16q18 -19 18 -45.5t-24 -88.5l-547 -1306q-27 -62 -78 -62q-59 0 -72 54q4 22 21 59zM236 1335h-105q-53 0 -63 62q8 63 61 63h215q41 0 41 -28v-785q0 -53 -78 -63q-71 18 -71 63v688z"/>
<glyph glyph-name="uni00BE" horiz-adv-x="1648" unicode="¾" d="M117 1276q21 197 264 197q102 0 174 -62q74 -63 74 -168q0 -119 -113 -182q80 -25 121 -80q39 -51 39 -133q0 -123 -101 -197q-92 -67 -219 -67q-98 0 -168 47q-73 52 -92 129l-8 37q9 67 55 67q41 0 58 -41q41 -98 110 -106l29 -4l25 -4q59 0 112 41q49 38 55 94 q0 80 -32 112q-35 35 -113 35q-88 0 -88 53q0 37 74 60q106 26 106 143q0 47 -37 76q-30 25 -86 25q-49 0 -90 -25q-43 -31 -43 -72q0 -52 -55 -55q-51 6 -51 80zM524 84l559 1348q25 57 72 57q29 0 51 -16q19 -19 19 -45.5t-25 -88.5l-549 -1306q-24 -62 -76 -62 q-55 0 -67 54q4 32 16 59zM1323 201h-367q-38 0 -45 43q13 47 33 75l328 496q40 62 104 62q49 0 72 -21q25 -20 25 -59v-478h51q53 0 53 -59t-49 -59h-55v-154q0 -27 -21 -45q-20 -14 -51 -14q-33 0 -53 18q-25 19 -25 45v150zM1323 319v408l-240 -408h240z"/>
<glyph glyph-name="uni00BF" horiz-adv-x="907" unicode="¿" d="M559 608v-268q0 -43 -20 -64q-22 -21 -62 -30l-96 -23q-52 -12 -105 -67q-50 -54 -50 -124q0 -8 1 -16l4 -49q33 -180 244 -180q176 0 223 158q25 75 82 75q39 0 63.5 -26.5t24.5 -65.5q0 -182 -223 -270q-92 -39 -184 -39q-135 0 -244 66q-114 70 -160 190 q-20 49 -20 105q0 344 344 415v213q0 35 25 64q20 24 59 24t67 -22q27 -25 27 -66zM471 1100q104 0 104 -105q0 -41 -30 -71q-34 -31 -74 -31q-41 0 -72 31q-30 34 -30 71q0 43 30 74q27 31 72 31z"/>
<glyph glyph-name="uni00C0" horiz-adv-x="1251" unicode="À" d="M457 1688q-56 20 -66 75q0 35 27 60q27 24 61 24l33 -4l272 -114q68 -28 68 -80q0 -64 -88 -76l-23 6l-24 4zM289 315l-96 -264q-21 -63 -93 -63q-34 0 -57 20q-25 21 -27 51l7 27l6 23l471 1259q20 57 53 80q35 29 72 29q88 0 127 -105l477 -1263q8 -27 8 -54 q0 -71 -84 -71q-25 0 -55 18q-28 18 -37 49l-96 264h-676zM344 471h567l-282 793z"/>
<glyph glyph-name="uni00C1" horiz-adv-x="1251" unicode="Á" d="M475 1733l242 98q18 8 47 8q35 0 59 -24q25 -22 25 -56q0 -47 -68 -76l-239 -100l-62 -10q-35 0 -57.5 20.5t-26.5 51.5q8 59 80 88zM289 315l-96 -264q-21 -63 -93 -63q-34 0 -57 20q-25 21 -27 51l7 27l6 23l471 1259q20 57 53 80q35 29 72 29q88 0 127 -105l477 -1263 q8 -27 8 -54q0 -71 -84 -71q-25 0 -55 18q-28 18 -37 49l-96 264h-676zM344 471h567l-282 793z"/>
<glyph glyph-name="uni00C2" horiz-adv-x="1251" unicode="Â" d="M621 1835l266 -115q28 -12 41 -30q12 -25 12 -50q0 -30 -18 -51q-29 -22 -58 -22l-49 12l-194 80l-193 -76l-59 -16q-31 0 -52 20q-18 25 -18 53q0 62 49 80zM289 315l-96 -264q-21 -63 -93 -63q-34 0 -57 20q-25 21 -27 51l7 27l6 23l471 1259q20 57 53 80q35 29 72 29 q88 0 127 -105l477 -1263q8 -27 8 -54q0 -71 -84 -71q-25 0 -55 18q-28 18 -37 49l-96 264h-676zM344 471h567l-282 793z"/>
<glyph glyph-name="uni00C3" horiz-adv-x="1251" unicode="Ã" d="M344 1737q55 59 160 59q49 0 121 -18q47 -13 102 -23q18 0 66 21q4 2 36 14q13 3 31 6q27 0 49 -22q19 -25 19 -54q0 -64 -62 -98q-28 -12 -65 -25q-45 -10 -70 -10l-18 4q-33 0 -96.5 18.5t-100.5 18.5q-28 0 -74 -18l-55 -23q-37 15 -47 33q-16 12 -16 47q0 43 20 70z M289 315l-96 -264q-21 -63 -93 -63q-34 0 -57 20q-25 21 -27 51l7 27l6 23l471 1259q20 57 53 80q35 29 72 29q88 0 127 -105l477 -1263q8 -27 8 -54q0 -71 -84 -71q-25 0 -55 18q-28 18 -37 49l-96 264h-676zM344 471h567l-282 793z"/>
<glyph glyph-name="uni00C4" horiz-adv-x="1251" unicode="Ä" d="M709 1675q0 46 30 80q35 33 80 33q49 0 80 -31q33 -33 33 -82q0 -45 -35 -76q-33 -32 -78 -32t-78 30q-32 35 -32 78zM328 1675q0 47 32.5 80t79.5 33t78 -33q31 -34 31 -80q0 -45 -31 -76q-33 -32 -78 -32q-46 0 -80 30q-32 35 -32 78zM289 315l-96 -264 q-21 -63 -93 -63q-34 0 -57 20q-25 21 -27 51l7 27l6 23l471 1259q20 57 53 80q35 29 72 29q88 0 127 -105l477 -1263q8 -27 8 -54q0 -71 -84 -71q-25 0 -55 18q-28 18 -37 49l-96 264h-676zM344 471h567l-282 793z"/>
<glyph glyph-name="uni00C5" horiz-adv-x="1251" unicode="Å" d="M621 1507q-78 0 -135.5 57.5t-57.5 135.5q0 80 57.5 137t135.5 57q84 0 139 -57q55 -59 55 -137t-57.5 -135.5t-136.5 -57.5zM621 1608q41 0 65 26q29 23 29 66q0 39 -29 67q-24 29 -65 29q-37 0 -66 -29q-27 -26 -27 -67q0 -35 29 -63.5t64 -28.5zM289 315l-96 -264 q-21 -63 -93 -63q-80 0 -84 71l7 27l6 23l471 1259q20 57 53 80q35 29 72 29q88 0 127 -105l477 -1263q8 -27 8 -54q0 -71 -84 -71q-25 0 -55 18q-28 18 -37 49l-96 264h-676zM344 471h567l-282 793z"/>
<glyph glyph-name="uni00C6" horiz-adv-x="1515" unicode="Æ" d="M369 471h395v780zM647 1389q25 47 51 61q31 10 66 10h600q41 0 63 -22q21 -21 21 -62q0 -84 -88 -84h-416v-477h404q79 0 79 -90q0 -82 -84 -82h-399v-475h440q46 0 66 -25q23 -26 23 -63t-27 -57q-29 -23 -66 -23h-520q-96 0 -96 100v215h-471l-150 -282 q-18 -45 -80 -45q-28 0 -57 16q-22 19 -22 51q0 17 16 66z"/>
<glyph glyph-name="uni00C7" horiz-adv-x="1216" unicode="Ç" d="M629 -8q-148 16 -256 88q-148 100 -230 276q-80 168 -80 353q0 149 41 290q40 133 123 246q84 109 203 164q133 64 279 64q63 0 149 -19q90 -18 146 -49q57 -31 108 -88q25 -31 25 -70q0 -28 -23 -51q-18 -20 -53 -25q-33 9 -45 17l-80 59q-40 31 -92 49q-49 21 -123 21 q-160 0 -260 -86q-103 -86 -156 -223q-20 -54 -37 -134q-12 -67 -12 -131q0 -120 39 -256q41 -139 137 -239q100 -105 260 -105q113 0 178 27q23 8 74 35q31 14 92 51q33 16 60 16q67 0 67 -79q0 -48 -26 -68q-156 -137 -402 -137l-51 -76l23 4l20 4q55 0 94 -31 q47 -34 47 -82q0 -176 -227 -176q-68 0 -106 21q-43 18 -43 51q0 57 45 57l47 -10q51 -10 57 -10q72 0 72 55q0 25 -19 35q-45 0 -110 14q-19 6 -25 31q2 12 21 49z"/>
<glyph glyph-name="uni00C8" horiz-adv-x="907" unicode="È" d="M301 1688q-55 20 -65 75q0 35 26 60q28 24 62 24l32 -4l273 -114q67 -28 67 -80q0 -64 -88 -76l-22 6l-25 4zM121 1360q0 45 22 74q27 26 54 26h551q32 0 55 -22q20 -21 20 -62q0 -84 -80 -84h-444v-481h406q36 0 59 -25q20 -22 20 -59q0 -29 -22 -57q-21 -27 -62 -27 h-401v-475h449q34 0 57 -25q18 -24 18 -63t-37 -66q-20 -14 -51 -14h-526q-53 0 -70 31q-14 37 -18 65v1264z"/>
<glyph glyph-name="uni00C9" horiz-adv-x="907" unicode="É" d="M303 1733l242 98q18 8 47 8q35 0 59 -24q25 -22 25 -56q0 -47 -68 -76l-239 -100l-62 -10q-78 0 -84 72q10 61 80 88zM121 1360q0 45 22 74q27 26 54 26h551q32 0 55 -22q20 -21 20 -62q0 -84 -80 -84h-444v-481h406q36 0 59 -25q20 -22 20 -59q0 -29 -22 -57 q-21 -27 -62 -27h-401v-475h449q34 0 57 -25q18 -24 18 -63t-37 -66q-20 -14 -51 -14h-526q-53 0 -70 31q-14 37 -18 65v1264z"/>
<glyph glyph-name="uni00CA" horiz-adv-x="907" unicode="Ê" d="M461 1835l266 -115q33 -12 41 -30q12 -22 12 -50q0 -30 -18 -51q-29 -22 -57 -22l-50 12l-194 80l-193 -76l-59 -16q-70 0 -70 73q0 59 49 80zM121 1360q0 45 22 74q27 26 54 26h551q32 0 55 -22q20 -21 20 -62q0 -84 -80 -84h-444v-481h406q36 0 59 -25q20 -22 20 -59 q0 -29 -22 -57q-21 -27 -62 -27h-401v-475h449q34 0 57 -25q18 -24 18 -63t-37 -66q-20 -14 -51 -14h-526q-53 0 -70 31q-14 37 -18 65v1264z"/>
<glyph glyph-name="uni00CB" horiz-adv-x="907" unicode="Ë" d="M541 1671q0 46 30 80q35 33 80 33q49 0 82 -33q31 -31 31 -80q0 -45 -35 -76q-33 -32 -78 -32t-78 30q-32 35 -32 78zM160 1671q0 47 32.5 80t79.5 33q52 0 78 -33q31 -34 31 -80q0 -45 -33 -76q-31 -32 -76 -32q-43 0 -77 32q-35 35 -35 76zM121 1360q0 45 22 74 q27 26 54 26h551q32 0 55 -22q20 -21 20 -62q0 -84 -80 -84h-444v-481h406q36 0 59 -25q20 -22 20 -59q0 -29 -22 -57q-21 -27 -62 -27h-401v-475h449q34 0 57 -25q18 -24 18 -63t-37 -66q-20 -14 -51 -14h-526q-53 0 -70 31q-14 37 -18 65v1264z"/>
<glyph glyph-name="uni00CC" horiz-adv-x="415" unicode="Ì" d="M49 1675q-53 21 -63 76q0 35 26 59q28 25 62 25l30 -4l275 -115q65 -28 65 -80q0 -75 -88 -75l-22 4l-25 6zM121 1376q0 97 92 97q33 0 61 -23q25 -25 25 -74v-1288q0 -55 -27 -80q-28 -20 -59 -20q-92 0 -92 96v1292z"/>
<glyph glyph-name="uni00CD" horiz-adv-x="415" unicode="Í" d="M43 1729l242 98q14 8 47 8t57 -25q27 -20 27 -55q0 -47 -68 -76l-239 -100l-62 -10q-74 0 -84 71q10 62 80 89zM121 1376q0 97 92 97q33 0 61 -23q25 -25 25 -74v-1288q0 -55 -27 -80q-28 -20 -59 -20q-92 0 -92 96v1292z"/>
<glyph glyph-name="uni00CE" horiz-adv-x="415" unicode="Î" d="M209 1835l266 -115q31 -14 39 -32q14 -21 14 -48q0 -30 -18 -51q-29 -22 -57 -22l-50 12l-194 80l-193 -76l-59 -16q-70 0 -70 73q0 62 50 80zM121 1376q0 97 92 97q33 0 61 -23q25 -25 25 -74v-1288q0 -55 -27 -80q-28 -20 -59 -20q-92 0 -92 96v1292z"/>
<glyph glyph-name="uni00CF" horiz-adv-x="415" unicode="Ï" d="M289 1675q0 46 30 80q35 33 80 33q50 0 80 -33q33 -31 33 -80q0 -45 -33 -76q-33 -32 -80 -32q-45 0 -77.5 32.5t-32.5 75.5zM-92 1675q0 49 33 80q32 33 79.5 33t78 -31t30.5 -82q0 -45 -31 -76q-30 -32 -78 -32q-45 0 -77 32q-35 35 -35 76zM121 1376q0 97 92 97 q33 0 61 -23q25 -25 25 -74v-1288q0 -55 -27 -80q-28 -20 -59 -20q-92 0 -92 96v1292z"/>
<glyph glyph-name="uni00D0" horiz-adv-x="1292" unicode="Ð" d="M129 1364q0 96 94 96h369q192 0 338 -94q149 -92 225 -264q74 -164 74 -367q0 -206 -74 -381q-72 -170 -215 -262q-144 -92 -332 -92h-385q-37 0 -65.5 22.5t-28.5 59.5v577h-86q-80 0 -80 76t84 76h82v553zM307 1305v-494h252q84 0 84 -76t-84 -76h-252v-503h281 q63 0 137 22q70 21 145 88q166 144 166 482q0 311 -178 458q-47 39 -100 62q-82 37 -195 37h-256z"/>
<glyph glyph-name="uni00D1" horiz-adv-x="1363" unicode="Ñ" d="M403 1737q54 59 160 59q47 0 121 -18q10 -2 30.5 -7.5t28.5 -7.5q39 -8 43 -8q19 0 66 21q4 2 37 14q9 3 31 6q27 0 49 -24q18 -25 18 -52q0 -64 -61 -98q-29 -12 -66 -25q-45 -10 -69 -10l-19 4q-31 0 -96.5 18.5t-100.5 18.5q-30 0 -73 -18l-56 -23q-30 15 -49 33 q-14 12 -14 47q0 47 20 70zM121 1380q0 97 76 97q59 0 102 -62l766 -1100l2 1061q0 41 25 70q20 27 63 27q37 0 66 -25q26 -25 26 -72v-1300q0 -92 -80 -92q-61 0 -100 57l-768 1104v-1069q0 -39 -26.5 -63.5t-63.5 -24.5q-33 0 -59 24q-29 25 -29 68v1300z"/>
<glyph glyph-name="uni00D2" horiz-adv-x="1400" unicode="Ò" d="M541 1692q-56 20 -66 75q0 35 27 60q27 24 61 24l33 -4l272 -114q68 -28 68 -80q0 -35 -26.5 -55.5t-61.5 -20.5l-23 4l-24 6zM256 731q0 -321 182 -493q101 -95 267 -95q151 0 264 97q100 84 149 237q35 115 35 254t-35 256q-67 217 -237 295q-80 35 -176 35 q-271 0 -390 -270q-59 -138 -59 -316zM63 727q0 193 72 358q76 181 227 285q146 103 343 103q303 0 471 -222q79 -100 122 -237q45 -137 45 -287q0 -434 -296 -639q-144 -100 -342 -100q-181 0 -324 92q-141 88 -231 264q-87 176 -87 383z"/>
<glyph glyph-name="uni00D3" horiz-adv-x="1400" unicode="Ó" d="M555 1737l242 98q18 8 47 8q33 0 57 -24q27 -21 27 -56q0 -47 -68 -75l-239 -101q-25 -10 -62 -10q-35 0 -57.5 20.5t-26.5 51.5q10 61 80 88zM256 731q0 -321 182 -493q101 -95 267 -95q151 0 264 97q100 84 149 237q35 115 35 254t-35 256q-67 217 -237 295 q-80 35 -176 35q-271 0 -390 -270q-59 -138 -59 -316zM63 727q0 193 72 358q76 181 227 285q146 103 343 103q303 0 471 -222q79 -100 122 -237q45 -137 45 -287q0 -434 -296 -639q-144 -100 -342 -100q-181 0 -324 92q-141 88 -231 264q-87 176 -87 383z"/>
<glyph glyph-name="uni00D4" horiz-adv-x="1400" unicode="Ô" d="M705 1839l266 -115q24 -8 41 -30q12 -25 12 -49q0 -62 -76 -74l-49 12l-194 80l-193 -76l-59 -16q-60 0 -70 74q0 61 49 79zM256 731q0 -321 182 -493q101 -95 267 -95q151 0 264 97q100 84 149 237q35 115 35 254t-35 256q-67 217 -237 295q-80 35 -176 35 q-271 0 -390 -270q-59 -138 -59 -316zM63 727q0 193 72 358q76 181 227 285q146 103 343 103q303 0 471 -222q79 -100 122 -237q45 -137 45 -287q0 -434 -296 -639q-144 -100 -342 -100q-181 0 -324 92q-141 88 -231 264q-87 176 -87 383z"/>
<glyph glyph-name="uni00D5" horiz-adv-x="1400" unicode="Õ" d="M420 1737q55 59 160 59q53 0 120 -18q95 -23 105 -23q16 0 63 21q4 2 37 14q19 2 33 6q29 0 47 -24q19 -23 19 -52q0 -64 -62 -98q-22 -12 -63 -23q-43 -12 -70 -12l-21 4q-21 0 -73 13q-72 18 -78 18q-34 6 -43 6q-33 0 -76 -18l-55 -23q-33 15 -47 33q-17 12 -17 47 q0 43 21 70zM256 731q0 -321 182 -493q101 -95 267 -95q151 0 264 97q100 84 149 237q35 115 35 254t-35 256q-67 217 -237 295q-80 35 -176 35q-271 0 -390 -270q-59 -138 -59 -316zM63 727q0 193 72 358q76 181 227 285q146 103 343 103q303 0 471 -222q79 -100 122 -237 q45 -137 45 -287q0 -434 -296 -639q-144 -100 -342 -100q-181 0 -324 92q-141 88 -231 264q-87 176 -87 383z"/>
<glyph glyph-name="uni00D6" horiz-adv-x="1400" unicode="Ö" d="M784 1675q0 46 31 80q35 33 82 33t80 -33q31 -34 31 -80q0 -43 -33 -75.5t-78 -32.5q-46 0 -80 30q-33 35 -33 78zM403 1675q0 47 33 80t80 33t78 -31t31 -82q0 -45 -31 -78q-33 -30 -78 -30q-46 0 -80 30q-33 35 -33 78zM256 731q0 -321 182 -493q101 -95 267 -95 q151 0 264 97q100 84 149 237q35 115 35 254t-35 256q-67 217 -237 295q-80 35 -176 35q-271 0 -390 -270q-59 -138 -59 -316zM63 727q0 193 72 358q76 181 227 285q146 103 343 103q303 0 471 -222q79 -100 122 -237q45 -137 45 -287q0 -434 -296 -639q-144 -100 -342 -100 q-181 0 -324 92q-141 88 -231 264q-87 176 -87 383z"/>
<glyph glyph-name="uni00D7" horiz-adv-x="1193" unicode="×" d="M162 410l313 315l-313 313l123 121l313 -313l313 313l119 -121l-311 -313l313 -313l-121 -123l-313 313l-315 -313z"/>
<glyph glyph-name="uni00D8" horiz-adv-x="1400" unicode="Ø" d="M324 387l684 797q-121 133 -303 133q-271 0 -390 -270q-59 -138 -59 -316q0 -193 68 -344zM1079 1071l-684 -795q117 -133 310 -133q149 0 264 97q106 90 151 235q33 98 33 256q0 195 -74 340zM63 727q0 193 72 358q76 181 227 285q146 103 343 103q241 0 411 -164 l127 151q25 29 57 29q27 0 48 -16q16 -21 16 -46q0 -16 -16 -38l-148 -172q68 -97 107 -224q36 -121 36 -266q0 -434 -296 -639q-144 -100 -342 -100q-246 0 -416 164l-125 -148q-31 -37 -72 -37q-20 0 -37 17q-6 2 -18 41q6 22 22 51l146 168q-31 45 -58 102 q-34 80 -47 121q-37 123 -37 260z"/>
<glyph glyph-name="uni00D9" horiz-adv-x="1363" unicode="Ù" d="M520 1688q-53 22 -63 75q0 31 24 60q27 24 64 24l30 -4l275 -114q65 -29 65 -80q0 -31 -20 -50q-21 -20 -68 -26l-22 6l-25 4zM121 1380q0 41 26 68q28 25 62 25q90 0 90 -93v-876q0 -138 80 -234q45 -53 113 -86q94 -41 204 -41q228 0 330 176q45 78 45 185v876 q0 37 23 66q20 27 61 27q37 0 66 -25q26 -25 26 -68v-817q0 -366 -246 -506q-120 -69 -309 -69q-143 0 -254 41q-211 82 -282 297q-35 110 -35 233v821z"/>
<glyph glyph-name="uni00DA" horiz-adv-x="1363" unicode="Ú" d="M535 1737l241 98q19 8 47.5 8t57.5 -24q26 -25 26 -56q0 -47 -65 -75l-242 -101q-27 -10 -59 -10q-39 0 -60 20q-22 19 -24 52q6 59 78 88zM121 1380q0 41 26 68q28 25 62 25q90 0 90 -93v-876q0 -138 80 -234q45 -53 113 -86q94 -41 204 -41q228 0 330 176q45 78 45 185 v876q0 37 23 66q20 27 61 27q37 0 66 -25q26 -25 26 -68v-817q0 -366 -246 -506q-120 -69 -309 -69q-143 0 -254 41q-211 82 -282 297q-35 110 -35 233v821z"/>
<glyph glyph-name="uni00DB" horiz-adv-x="1363" unicode="Û" d="M680 1835l266 -115q31 -14 39 -32q14 -21 14 -48q0 -30 -18 -51q-29 -22 -57 -22l-50 12l-194 80l-193 -76l-59 -16q-70 0 -70 73q0 59 50 80zM121 1380q0 41 26 68q28 25 62 25q90 0 90 -93v-876q0 -138 80 -234q45 -53 113 -86q94 -41 204 -41q228 0 330 176 q45 78 45 185v876q0 37 23 66q20 27 61 27q37 0 66 -25q26 -25 26 -68v-817q0 -366 -246 -506q-120 -69 -309 -69q-143 0 -254 41q-211 82 -282 297q-35 110 -35 233v821z"/>
<glyph glyph-name="uni00DC" horiz-adv-x="1363" unicode="Ü" d="M764 1675q0 47 32.5 80t77.5 33q50 0 80 -33q33 -31 33 -80q0 -45 -33 -76q-32 -32 -80 -32q-45 0 -77.5 32.5t-32.5 75.5zM383 1675q0 47 33 80t80 33t77.5 -31t30.5 -82q0 -45 -31 -76q-30 -32 -77 -32q-43 0 -78 32q-35 35 -35 76zM121 1380q0 41 26 68q28 25 62 25 q90 0 90 -93v-876q0 -138 80 -234q45 -53 113 -86q94 -41 204 -41q228 0 330 176q45 78 45 185v876q0 37 23 66q20 27 61 27q37 0 66 -25q26 -25 26 -68v-817q0 -366 -246 -506q-120 -69 -309 -69q-143 0 -254 41q-211 82 -282 297q-35 110 -35 233v821z"/>
<glyph glyph-name="uni00DD" horiz-adv-x="985" unicode="Ý" d="M367 1741l241 98q19 8 47.5 8t57.5 -24q26 -25 26 -56q0 -47 -65 -75l-242 -101q-24 -10 -59 -10q-39 0 -60 21q-22 18 -24 51q6 59 78 88zM424 688l-399 647l-25 66q0 29 25 51q22 21 55 21q57 0 88 -50l344 -559l344 555q35 54 84 54q80 0 80 -76q0 -29 -16 -58 l-400 -651v-604q0 -100 -92 -100q-33 0 -61 28q-27 27 -27 72v604z"/>
<glyph glyph-name="uni00DE" horiz-adv-x="1064" unicode="Þ" d="M299 319v-233q0 -41 -23 -74q-26 -32 -67 -32q-33 0 -62 28q-26 27 -26 76v1292q0 43 24 74q23 31 64 31t63 -29q27 -25 27 -76v-147h272q295 0 416 -225q57 -107 57 -232q0 -260 -229 -391q-107 -62 -240 -62h-276zM299 1075v-600h264q178 0 262 148q39 69 39 149 q0 143 -84 223t-225 80h-256z"/>
<glyph glyph-name="uni00DF" horiz-adv-x="1140" unicode="ß" d="M121 72v1104q0 233 174 346q92 61 217 61q111 0 201 -49q207 -115 207 -334q0 -223 -156 -336q135 -37 209 -157q63 -107 63 -258q0 -117 -49 -218q-53 -110 -147 -174q-101 -69 -219 -69q-109 0 -109 92q9 67 80 67q252 0 252 318q0 117 -62 207q-65 96 -182 96 q-51 0 -73.5 22.5t-22.5 57.5q0 33 20 51q17 16 64 29q82 20 112 73q39 64 39 162q0 117 -59 193q-62 71 -160 71q-92 0 -141 -53q-52 -58 -68 -117q-14 -59 -14 -108l2 -4v-1073q0 -84 -90 -84q-31 0 -59.5 22.5t-28.5 61.5z"/>
<glyph glyph-name="uni00E0" horiz-adv-x="1140" unicode="à" d="M401 1368q-57 21 -63 76q0 33 27 59q27 25 61 25l31 -4l272 -115q68 -28 68 -80q0 -35 -23 -51q-24 -25 -65 -25l-23 4l-24 7zM852 1016q4 45 27 65q22 23 57 23t61 -23q23 -22 23 -69v-932q0 -92 -84 -92q-35 0 -59.5 24.5t-24.5 59.5v80q-123 -164 -289 -164 q-227 0 -364 168q-127 157 -127 385q0 356 250 501q108 62 219 62q184 0 307 -148zM252 545q0 -238 131 -344q70 -58 158 -58q164 0 239 125q68 108 68 277q0 254 -141 354q-68 49 -154 49q-147 0 -223 -117q-35 -51 -58 -126q-20 -74 -20 -160z"/>
<glyph glyph-name="uni00E1" horiz-adv-x="1140" unicode="á" d="M420 1409l242 98q18 9 46.5 9t57.5 -25q27 -25 27 -55q0 -47 -68 -76l-240 -100q-51 -11 -59 -11q-39 0 -59 21q-25 20 -25 51q6 59 78 88zM852 1016q4 45 27 65q22 23 57 23t61 -23q23 -22 23 -69v-932q0 -92 -84 -92q-35 0 -59.5 24.5t-24.5 59.5v80 q-123 -164 -289 -164q-227 0 -364 168q-127 157 -127 385q0 356 250 501q108 62 219 62q184 0 307 -148zM252 545q0 -238 131 -344q70 -58 158 -58q164 0 239 125q68 108 68 277q0 254 -141 354q-68 49 -154 49q-147 0 -223 -117q-35 -51 -58 -126q-20 -74 -20 -160z"/>
<glyph glyph-name="uni00E2" horiz-adv-x="1140" unicode="â" d="M569 1507l267 -114q24 -9 41 -31q14 -27 14 -49q0 -27 -21 -49q-24 -25 -57 -25l-47 12l-197 80l-190 -76l-62 -16q-28 0 -51 23q-16 24 -18 51q0 58 49 80zM852 1016q4 45 27 65q22 23 57 23t61 -23q23 -22 23 -69v-932q0 -92 -84 -92q-35 0 -59.5 24.5t-24.5 59.5v80 q-123 -164 -289 -164q-227 0 -364 168q-127 157 -127 385q0 356 250 501q108 62 219 62q184 0 307 -148zM252 545q0 -238 131 -344q70 -58 158 -58q164 0 239 125q68 108 68 277q0 254 -141 354q-68 49 -154 49q-147 0 -223 -117q-35 -51 -58 -126q-20 -74 -20 -160z"/>
<glyph glyph-name="uni00E3" horiz-adv-x="1140" unicode="ã" d="M293 1409q53 59 160 59q30 0 120 -18l105 -23q22 3 65 23q40 18 68 18q29 0 47 -22q19 -21 19 -53q0 -62 -62 -97q-59 -30 -133 -36l-20 4q-29 0 -97 18q-64 18 -98 18q-29 0 -76 -18l-55 -22q-33 14 -47 32q-17 17 -17 47q0 50 21 70zM852 1016q4 45 27 65q22 23 57 23 t61 -23q23 -22 23 -69v-932q0 -92 -84 -92q-35 0 -59.5 24.5t-24.5 59.5v80q-123 -164 -289 -164q-227 0 -364 168q-127 157 -127 385q0 356 250 501q108 62 219 62q184 0 307 -148zM252 545q0 -238 131 -344q70 -58 158 -58q164 0 239 125q68 108 68 277q0 254 -141 354 q-68 49 -154 49q-147 0 -223 -117q-35 -51 -58 -126q-20 -74 -20 -160z"/>
<glyph glyph-name="uni00E4" horiz-adv-x="1140" unicode="ä" d="M649 1348q0 49 33 79q33 33 80 33q46 0 80 -30q30 -31 30 -82q0 -43 -32.5 -76t-77.5 -33q-47 0 -80 33q-33 31 -33 76zM268 1348q0 49 33 82q35 30 82 30q45 0 75.5 -30.5t30.5 -81.5q0 -41 -30 -76q-33 -33 -76 -33q-46 0 -80 31q-35 30 -35 78zM852 1016q4 45 27 65 q22 23 57 23t61 -23q23 -22 23 -69v-932q0 -92 -84 -92q-35 0 -59.5 24.5t-24.5 59.5v80q-123 -164 -289 -164q-227 0 -364 168q-127 157 -127 385q0 356 250 501q108 62 219 62q184 0 307 -148zM252 545q0 -238 131 -344q70 -58 158 -58q164 0 239 125q68 108 68 277 q0 254 -141 354q-68 49 -154 49q-147 0 -223 -117q-35 -51 -58 -126q-20 -74 -20 -160z"/>
<glyph glyph-name="uni00E5" horiz-adv-x="1140" unicode="å" d="M569 1200q-75 0 -132.5 57.5t-57.5 135.5q0 82 55 137q55 57 135 57q82 0 140 -57q57 -55 57 -137q0 -76 -59 -136q-58 -57 -138 -57zM569 1300q41 0 68 27t27 66q0 43 -27 69.5t-68 26.5q-37 0 -65 -29q-27 -26 -27 -67q0 -39 26.5 -66t65.5 -27zM852 1016q4 45 27 65 q22 23 57 23t61 -23q23 -22 23 -69v-932q0 -92 -84 -92q-35 0 -59.5 24.5t-24.5 59.5v80q-123 -164 -289 -164q-227 0 -364 168q-127 157 -127 385q0 356 250 501q108 62 219 62q184 0 307 -148zM252 545q0 -238 131 -344q70 -58 158 -58q164 0 239 125q68 108 68 277 q0 254 -141 354q-68 49 -154 49q-147 0 -223 -117q-35 -51 -58 -126q-20 -74 -20 -160z"/>
<glyph glyph-name="uni00E6" horiz-adv-x="1820" unicode="æ" d="M1587 612q0 158 -82 246q-84 90 -200 90q-201 0 -267 -188q-22 -72 -22 -148h571zM852 1016q4 41 29 61q26 23 51 23q88 0 88 -88v-43q127 135 297 135q125 0 233 -82q105 -78 160 -193q57 -116 57 -254q0 -100 -100 -100h-663q0 -49 12 -88q18 -57 35 -84 q45 -74 118 -115q76 -41 154 -41q147 0 322 134l34 8q68 0 68 -76q0 -25 -10 -45q-54 -78 -170 -129q-111 -51 -211 -51q-231 0 -332 135l-4 -41q0 -43 -23 -70q-21 -24 -61 -24q-35 0 -59 26q-25 28 -25 62v76q-94 -125 -236 -154q-30 -6 -71 -6q-285 0 -414 280 q-59 136 -59 269q0 153 59 284q65 142 191 215q106 64 219 64q184 0 307 -148zM252 549q0 -244 139 -352q70 -54 162 -54q197 0 266 203q33 90 33 191q0 188 -80 299q-82 112 -227 112q-111 0 -178 -71q-70 -72 -91 -156q-24 -92 -24 -172z"/>
<glyph glyph-name="uni00E7" horiz-adv-x="907" unicode="ç" d="M584 -12l-52 -76l43 8q56 0 95 -31q41 -30 47 -82q0 -176 -230 -176q-65 0 -106 21q-45 20 -45 51q0 57 45 57l51 -10l55 -10q72 0 72 55q0 33 -33 39q-6 2 -57 2q-37 0 -47 8.5t-14 30.5l20 49l47 72q-96 12 -182 72q-143 104 -197 286q-24 89 -24 166q0 236 108 391 q135 193 375 193q104 0 182 -25q119 -32 119 -114q0 -64 -80 -76l-61 20l-84 27q-4 2 -14.5 2t-16.5 2q-20 4 -37 4q-194 0 -270 -199q-41 -106 -41 -186q0 -162 61 -268q70 -129 219 -148q19 0 31 -4l49 6l41 13l43 16l39 19q25 12 45 12q29 0 49 -21q19 -21 19 -55 q0 -74 -100 -113q-76 -28 -164 -28z"/>
<glyph glyph-name="uni00E8" horiz-adv-x="1064" unicode="è" d="M373 1360q-56 20 -66 76q0 32 27 59q24 25 61 25l33 -4l272 -115q68 -28 68 -80q0 -33 -23 -51q-30 -25 -65 -25l-23 4l-24 6zM231 612h600q0 146 -77 242q-76 94 -213.5 94t-218.5 -88q-91 -96 -91 -248zM283 1024q114 80 249 80q287 0 418 -279q62 -129 62 -262 q0 -88 -101 -88h-680q0 -209 166 -293q76 -39 166 -39q160 0 293 113q39 33 68 33q63 0 63 -76q0 -37 -26 -66q-64 -71 -189 -118q-113 -41 -219 -41q-249 0 -387 184q-64 86 -90 182q-29 103 -29 191l2 8q2 135 66 266q61 131 168 205z"/>
<glyph glyph-name="uni00E9" horiz-adv-x="1064" unicode="é" d="M387 1413l242 98q18 9 47 9q33 0 57 -25q27 -20 27 -55q0 -47 -68 -76l-239 -100q-27 -11 -62 -11q-80 0 -84 72q10 61 80 88zM231 612h600q0 146 -77 242q-76 94 -213.5 94t-218.5 -88q-91 -96 -91 -248zM283 1024q114 80 249 80q287 0 418 -279q62 -129 62 -262 q0 -88 -101 -88h-680q0 -209 166 -293q76 -39 166 -39q160 0 293 113q39 33 68 33q63 0 63 -76q0 -37 -26 -66q-64 -71 -189 -118q-113 -41 -219 -41q-249 0 -387 184q-64 86 -90 182q-29 103 -29 191l2 8q2 135 66 266q61 131 168 205z"/>
<glyph glyph-name="uni00EA" horiz-adv-x="1064" unicode="ê" d="M528 1511l267 -114q26 -11 41 -31q16 -29 16 -49q0 -31 -25 -53q-22 -21 -55 -21l-47 12l-197 80l-190 -75l-62 -17q-32 0 -47 21q-20 22 -22 53q0 58 49 80zM231 612h600q0 146 -77 242q-76 94 -213.5 94t-218.5 -88q-91 -96 -91 -248zM283 1024q114 80 249 80 q287 0 418 -279q62 -129 62 -262q0 -88 -101 -88h-680q0 -209 166 -293q76 -39 166 -39q160 0 293 113q39 33 68 33q63 0 63 -76q0 -37 -26 -66q-64 -71 -189 -118q-113 -41 -219 -41q-249 0 -387 184q-64 86 -90 182q-29 103 -29 191l2 8q2 135 66 266q61 131 168 205z"/>
<glyph glyph-name="uni00EB" horiz-adv-x="1064" unicode="ë" d="M612 1348q0 51 31 82q33 30 82 30q46 0 80 -30q31 -31 31 -82q0 -43 -33 -76t-78 -33q-46 0 -80 31q-33 33 -33 78zM231 1348q0 49 33 82q34 30 80 30q47 0 78 -30.5t31 -81.5q0 -45 -31 -76q-33 -33 -78 -33q-46 0 -80 31q-33 33 -33 78zM231 612h600q0 146 -77 242 q-76 94 -213.5 94t-218.5 -88q-91 -96 -91 -248zM283 1024q114 80 249 80q287 0 418 -279q62 -129 62 -262q0 -88 -101 -88h-680q0 -209 166 -293q76 -39 166 -39q160 0 293 113q39 33 68 33q63 0 63 -76q0 -37 -26 -66q-64 -71 -189 -118q-113 -41 -219 -41 q-249 0 -387 184q-64 86 -90 182q-29 103 -29 191l2 8q2 135 66 266q61 131 168 205z"/>
<glyph glyph-name="uni00EC" horiz-adv-x="415" unicode="ì" d="M41 1364q-55 20 -66 76q0 30 25 59q29 25 63 25l33 -4l273 -115q67 -28 67 -80q0 -76 -88 -76l-22 4l-25 7zM121 1012q0 92 88 92q39 0 65 -23q25 -24 25 -73v-928q0 -92 -90 -92q-33 0 -59 24q-29 25 -29 68v932z"/>
<glyph glyph-name="uni00ED" horiz-adv-x="415" unicode="í" d="M55 1409l242 98q16 9 47 9t59 -23q25 -25 25 -57q0 -47 -68 -76l-239 -100q-27 -11 -62 -11q-79 0 -84 72q11 61 80 88zM121 1012q0 92 88 92q39 0 65 -23q25 -24 25 -73v-928q0 -92 -90 -92q-33 0 -59 24q-29 25 -29 68v932z"/>
<glyph glyph-name="uni00EE" horiz-adv-x="415" unicode="î" d="M213 1507l266 -114q53 -17 53 -80q0 -31 -22 -53q-21 -21 -53 -21l-49 12l-195 80l-193 -76l-59 -16q-35 0 -51 23q-19 20 -19 51q0 58 50 80zM121 1012q0 92 88 92q39 0 65 -23q25 -24 25 -73v-928q0 -92 -90 -92q-33 0 -59 24q-29 25 -29 68v932z"/>
<glyph glyph-name="uni00EF" horiz-adv-x="415" unicode="ï" d="M293 1348q0 51 30.5 81.5t79.5 30.5q48 0 82 -30q31 -31 31 -82q0 -45 -33 -78q-33 -31 -80 -31q-45 0 -77.5 33t-32.5 76zM-88 1348q0 49 33 82q30 30 80 30q45 0 77 -30q31 -33 31 -82q0 -43 -33 -76q-30 -33 -75 -33q-47 0 -80 31q-33 33 -33 78zM121 1012q0 92 88 92 q39 0 65 -23q25 -24 25 -73v-928q0 -92 -90 -92q-33 0 -59 24q-29 25 -29 68v932z"/>
<glyph glyph-name="uni00F0" d="M252 537q0 -222 135 -334q72 -60 166 -60q188 0 266 203q33 86 33 191q0 225 -131 337q-66 58 -168 58q-104 0 -168 -58q-133 -114 -133 -337zM72 537q0 162 67 294q74 148 207 216q88 45 195 45q164 0 256 -123l4 4q-64 172 -248 327l-176 -83q-41 -19 -66 -21 q-16 2 -24 10l-13 19l-10 22q6 41 35 53l162 76q-19 16 -37 25l-53 26q-56 21 -78 41q-25 15 -25 52q0 63 76 63q51 0 145 -47q74 -35 132 -80l188 96q33 17 55 17q51 0 51 -49q0 -37 -43 -60l-159 -76q112 -100 180 -217q68 -112 104 -266q35 -143 35 -289q0 -188 -53 -325 q-121 -299 -438 -299q-211 0 -346 174q-123 160 -123 375z" unicode="ð"/>
<glyph glyph-name="uni00F1" d="M272 1409q54 59 160 59q31 0 121 -18l102 -23q23 3 66 23q43 18 67 18q27 0 50 -22q18 -25 18 -53q0 -62 -61 -97q-23 -12 -68 -26q-37 -10 -68 -10l-18 4q-29 0 -96 18q-66 18 -101 18q-24 0 -73 -18l-56 -22q-63 26 -63 79q0 47 20 70zM121 1008q0 45 26 69 q25 27 62 27q39 0 65 -23q25 -24 25 -73v-43l4 -4q51 69 129 106q76 37 168 37q230 0 332 -184q51 -91 51 -232v-608q0 -37 -27 -64q-24 -24 -63 -24q-33 0 -59 24q-29 23 -29 64v604q0 121 -76 190q-72 70 -176 70q-68 0 -123 -26q-53 -27 -94 -93q-37 -63 -37 -145v-600 q0 -96 -86 -96q-37 0 -63 26q-29 29 -29 70v928z" unicode="ñ"/>
<glyph glyph-name="uni00F2" d="M393 1356q-53 20 -63 76q0 30 24 59q27 25 64 25l31 -5l274 -114q65 -29 65 -80q0 -76 -88 -76l-22 4l-25 6zM72 545q0 157 61 286q62 132 172 201q115 72 248 72q141 0 254 -76q111 -76 168 -205q57 -123 57 -278q0 -324 -223 -479q-113 -78 -256 -78q-221 0 -358 174 q-123 157 -123 383zM252 545q0 -148 73.5 -275t223.5 -127q98 0 168 54q63 51 100 145q35 98 35 203q0 102 -35 203q-35 92 -98 143q-70 57 -166 57q-98 0 -162 -49q-65 -51 -102 -147.5t-37 -206.5z" unicode="ò"/>
<glyph glyph-name="uni00F3" d="M408 1413l241 98q17 9 47 9q29 0 58 -25q26 -25 26 -55q0 -47 -65 -76l-242 -100q-27 -11 -59 -11q-80 0 -84 72q6 57 78 88zM72 545q0 157 61 286q62 132 172 201q115 72 248 72q141 0 254 -76q111 -76 168 -205q57 -123 57 -278q0 -324 -223 -479q-113 -78 -256 -78 q-221 0 -358 174q-123 157 -123 383zM252 545q0 -148 73.5 -275t223.5 -127q98 0 168 54q63 51 100 145q35 98 35 203q0 102 -35 203q-35 92 -98 143q-70 57 -166 57q-98 0 -162 -49q-65 -51 -102 -147.5t-37 -206.5z" unicode="ó"/>
<glyph glyph-name="uni00F4" d="M553 1511l266 -114q53 -17 53 -80q0 -31 -22 -53q-21 -21 -53 -21l-49 12l-195 80l-193 -75l-59 -17q-70 0 -70 74q0 58 50 80zM72 545q0 157 61 286q62 132 172 201q115 72 248 72q141 0 254 -76q111 -76 168 -205q57 -123 57 -278q0 -324 -223 -479q-113 -78 -256 -78 q-221 0 -358 174q-123 157 -123 383zM252 545q0 -148 73.5 -275t223.5 -127q98 0 168 54q63 51 100 145q35 98 35 203q0 102 -35 203q-35 92 -98 143q-70 57 -166 57q-98 0 -162 -49q-65 -51 -102 -147.5t-37 -206.5z" unicode="ô"/>
<glyph glyph-name="uni00F5" d="M264 1413q53 60 160 60q31 0 121 -19l102 -22q15 2 66 20q39 21 67 21q27 0 49 -23q19 -25 19 -53q0 -62 -62 -97q-22 -12 -67 -26q-37 -10 -68 -10l-18 4q-29 0 -96.5 18.5t-100.5 18.5q-24 0 -74 -19l-55 -22q-63 30 -63 79.5t20 69.5zM72 545q0 157 61 286 q62 132 172 201q115 72 248 72q141 0 254 -76q111 -76 168 -205q57 -123 57 -278q0 -324 -223 -479q-113 -78 -256 -78q-221 0 -358 174q-123 157 -123 383zM252 545q0 -148 73.5 -275t223.5 -127q98 0 168 54q63 51 100 145q35 98 35 203q0 102 -35 203q-35 92 -98 143 q-70 57 -166 57q-98 0 -162 -49q-65 -51 -102 -147.5t-37 -206.5z" unicode="õ"/>
<glyph glyph-name="uni00F6" d="M633 1352q0 47 32.5 79.5t77.5 32.5q48 0 82 -30q31 -31 31 -82q0 -45 -33 -78q-33 -31 -80 -31q-45 0 -77.5 33t-32.5 76zM252 1352q0 47 32.5 79.5t80 32.5t77.5 -30q31 -29 31 -82q0 -43 -33 -76q-30 -33 -75.5 -33t-77.5 33q-35 31 -35 76zM72 545q0 157 61 286 q62 132 172 201q115 72 248 72q141 0 254 -76q111 -76 168 -205q57 -123 57 -278q0 -324 -223 -479q-113 -78 -256 -78q-221 0 -358 174q-123 157 -123 383zM252 545q0 -148 73.5 -275t223.5 -127q98 0 168 54q63 51 100 145q35 98 35 203q0 102 -35 203q-35 92 -98 143 q-70 57 -166 57q-98 0 -162 -49q-65 -51 -102 -147.5t-37 -206.5z" unicode="ö"/>
<glyph glyph-name="uni00F7" horiz-adv-x="1124" unicode="÷" d="M459 319v205h205v-205h-205zM1047 639h-969v168h969v-168zM459 922v204h205v-204h-205z"/>
<glyph glyph-name="uni00F8" d="M72 537q0 340 225 491q113 76 258 76q186 0 289 -109l88 109q31 37 59 37q25 0 45.5 -18.5t20.5 -43t-21 -47.5l-108 -133q104 -147 104 -358q0 -111 -31 -203q-67 -211 -249 -303q-90 -47 -199 -47q-170 0 -293 104l-92 -108q-18 -31 -59 -31q-22 0 -43.5 18.5 t-24.5 36.5q4 27 31 60l104 125q-104 135 -104 344zM293 332l446 540q-75 76 -186 76q-178 0 -254 -174q-47 -110 -47 -215l-4 -27q0 -108 45 -200zM809 756l-444 -537q77 -76 190 -76q129 0 211 107q41 53 65 125q21 61 21 166q0 119 -43 215z" unicode="ø"/>
<glyph glyph-name="uni00F9" d="M389 1356q-55 20 -65 76q0 34 26 59q28 25 62 25l32 -5l273 -114q67 -28 67 -80q0 -33 -26 -53q-29 -23 -62 -23l-22 4l-25 6zM121 1012q0 92 88 92q35 0 63 -23q27 -24 27 -69v-596q0 -127 63 -199q64 -74 187 -74q256 0 256 273v596q0 92 88 92q37 0 63.5 -20.5 t26.5 -71.5v-600q0 -252 -190 -365q-101 -59 -248 -59q-275 0 -377 213q-47 100 -47 211v600z" unicode="ù"/>
<glyph glyph-name="uni00FA" d="M391 1405l242 98q14 8 47 8q31 0 59 -22q25 -25 25 -57q0 -48 -68 -76l-239 -101q-31 -10 -62 -10q-78 0 -84 72q11 61 80 88zM121 1012q0 92 88 92q35 0 63 -23q27 -24 27 -69v-596q0 -127 63 -199q64 -74 187 -74q256 0 256 273v596q0 92 88 92q37 0 63.5 -20.5 t26.5 -71.5v-600q0 -252 -190 -365q-101 -59 -248 -59q-275 0 -377 213q-47 100 -47 211v600z" unicode="ú"/>
<glyph glyph-name="uni00FB" d="M557 1507l266 -114q31 -11 41 -29q13 -21 13 -51.5t-23 -52.5q-20 -21 -53 -21l-49 12l-195 80l-192 -76l-60 -16q-69 0 -69 74q0 58 49 80zM121 1012q0 92 88 92q35 0 63 -23q27 -24 27 -69v-596q0 -127 63 -199q64 -74 187 -74q256 0 256 273v596q0 92 88 92 q37 0 63.5 -20.5t26.5 -71.5v-600q0 -252 -190 -365q-101 -59 -248 -59q-275 0 -377 213q-47 100 -47 211v600z" unicode="û"/>
<glyph glyph-name="uni00FC" d="M637 1343q0 52 30.5 82.5t80.5 30.5q47 0 81 -31q31 -30 31 -82q0 -45 -33 -77q-33 -31 -79 -31t-78.5 32.5t-32.5 75.5zM256 1343q0 50 33 80q33 33 80 33q45 0 77 -31q31 -32 31 -82q0 -43 -33 -75q-30 -33 -75 -33t-78 33q-35 30 -35 75zM121 1012q0 92 88 92 q35 0 63 -23q27 -24 27 -69v-596q0 -127 63 -199q64 -74 187 -74q256 0 256 273v596q0 92 88 92q37 0 63.5 -20.5t26.5 -71.5v-600q0 -252 -190 -365q-101 -59 -248 -59q-275 0 -377 213q-47 100 -47 211v600z" unicode="ü"/>
<glyph glyph-name="uni00FD" horiz-adv-x="872" unicode="ý" d="M307 1409l242 98q18 9 47 9q31 0 59 -23q27 -25 27 -57q0 -50 -70 -76l-239 -100q-27 -11 -62 -11q-78 0 -84 72q11 61 80 88zM369 41l-336 979q0 80 84 80q71 0 92 -64l248 -747l252 751q20 64 84 64q84 0 84 -88q0 -25 -9 -43l-473 -1346q-16 -45 -37 -59 q-26 -21 -61 -21q-33 0 -49 23q-25 24 -25 61l13 58z"/>
<glyph glyph-name="uni00FE" horiz-adv-x="1140" unicode="þ" d="M307 -348q-4 -109 -88 -109q-31 0 -61 31q-29 29 -29 74v1841q0 90 86 90q92 0 92 -86v-537q83 148 277 148q116 0 196 -39q181 -86 252 -287q35 -108 35 -225q0 -334 -219 -492q-105 -73 -244 -73q-182 0 -293 147zM889 545q0 143 -51 246q-78 157 -234 157 q-211 0 -282 -207q-33 -92 -33 -192q0 -160 67 -273q80 -137 228 -137l16 4q80 0 156 60q96 80 125 239q8 41 8 103z"/>
<glyph glyph-name="OE" horiz-adv-x="1896" unicode="Œ" d="M1137 100v113q-54 -68 -115 -115q-59 -45 -152 -80q-83 -30 -165 -30q-289 0 -472 225q-88 111 -127 240q-43 133 -43 274q0 150 43 281q37 125 125 237q83 108 203 166q120 62 271 62q241 0 432 -205v92q0 100 96 100h508q80 0 80 -84t-92 -84h-412v-481h403 q35 0 60 -25q20 -26 20 -59q0 -84 -88 -84h-395v-475h438q37 0 60 -23q20 -20 20 -65q0 -80 -86 -80h-516q-96 0 -96 100zM709 143q288 0 393 293q47 135 47 299q0 359 -199 508q-95 74 -245 74q-228 0 -347 -193q-102 -161 -102 -397q0 -348 207 -506q102 -78 246 -78z"/>
<glyph glyph-name="oe" horiz-adv-x="1859" unicode="œ" d="M252 549q0 -244 139 -352q70 -54 158 -54q201 0 268 205q31 94 31 193q0 123 -37 215q-37 89 -104 141q-66 51 -162 51q-111 0 -178 -71q-70 -72 -91 -156q-24 -92 -24 -172zM940 889q55 92 153.5 153.5t241.5 61.5q201 0 342 -168q60 -68 95 -168q16 -37 24 -94 q8 -41 8 -99q0 -100 -100 -100h-676q0 -82 37 -158q70 -143 235 -165q43 0 64 -5q114 0 227 68q31 16 74 53q21 21 51 21q29 0 45 -23q19 -24 19 -53q0 -23 -8 -41q-46 -72 -164 -125q-70 -29 -82 -33q-86 -26 -170 -26q-293 0 -416 213q-88 -125 -227 -181 q-80 -32 -201 -32q-98 0 -207 71q-233 158 -233 482q0 178 69 309q138 254 414 254q141 0 236 -68q94 -63 149 -147zM1624 612q0 206 -147 295q-70 41 -150 41q-139 0 -221 -100q-78 -94 -78 -236h596z"/>
<glyph glyph-name="Scaron" horiz-adv-x="946" unicode="Š" d="M326 1866l198 -154l199 154l-199 -285zM784 1397q60 -41 60 -97q0 -33 -25 -55q-28 -24 -59 -24q-35 10 -101 39l-98 45q-33 12 -82 12q-205 0 -235 -213q0 -132 172 -197l119 -43l147 -55q12 -4 61 -29q15 -8 58 -37q53 -34 88 -92q55 -91 55 -207t-59 -223 q-58 -104 -164 -166q-115 -67 -268 -67q-105 0 -211 30q-201 60 -201 150q0 88 80 88q24 0 51 -16q145 -97 303 -97q72 0 137 39q136 96 136 246q0 74 -43 129q-35 47 -101 84q-47 27 -174 70l-127 45q-78 39 -131 80q-57 49 -84 100q-33 59 -33 151q0 109 66 203 q63 84 165 134t206 49q186 0 292 -76z"/>
<glyph glyph-name="scaron" horiz-adv-x="907" unicode="š" d="M315 1497l199 -154l199 154l-199 -285zM96 109q-43 36 -49 88q0 30 23 57q22 22 55 22q31 0 51 -14q25 -10 66 -43l55 -35q16 -10 72 -28q40 -13 80 -13q88 0 147 33q76 39 76 117q0 69 -84 123q-64 37 -158 73l-98 41l-76 35q-65 34 -111 92q-49 60 -49 144 q0 168 170 258q82 45 187 45q92 0 196 -35q105 -39 137 -74q41 -41 41 -84q0 -24 -22 -53q-27 -22 -57 -27q-41 13 -103 48l-96 53q-21 8 -35 10q-21 6 -43 6q-76 0 -131 -30q-68 -33 -68 -107q11 -49 47 -86l31 -25q22 -15 56 -30q15 -10 73 -31q6 -2 51 -18l99 -37 q227 -86 227 -277q0 -84 -53 -162q-51 -73 -129 -112q-88 -45 -221 -45q-205 0 -357 121z"/>
<glyph glyph-name="Ydieresis" horiz-adv-x="985" unicode="Ÿ" d="M514 1726q0 48 31 82q30 31 80 31q47 0 82 -31q30 -30 30 -82q0 -45 -32 -75q-33 -33 -80 -33q-45 0 -78 32.5t-33 75.5zM133 1726q0 50 33 80q33 33 80 33q49 0 78 -31q30 -30 30 -82q0 -43 -32.5 -75.5t-75.5 -32.5q-45 0 -78 33q-35 30 -35 75zM424 688l-399 647 l-25 66q0 29 25 51q22 21 55 21q57 0 88 -50l344 -559l344 555q35 54 84 54q80 0 80 -76q0 -29 -16 -58l-400 -651v-604q0 -100 -92 -100q-33 0 -61 28q-27 27 -27 72v604z"/>
<glyph glyph-name="circumflex" horiz-adv-x="415" unicode="ˆ" d="M209 1507l266 -114q53 -17 53 -80q0 -31 -22 -53q-21 -21 -53 -21l-50 12l-194 80l-193 -76l-59 -16q-70 0 -70 74q0 58 50 80z"/>
<glyph glyph-name="tilde" horiz-adv-x="415" unicode="˜" d="M-72 1409q54 59 160 59q31 0 121 -18l102 -23q23 3 66 23q43 18 67 18q27 0 50 -22q18 -25 18 -53q0 -62 -61 -97q-23 -12 -68 -26q-37 -10 -68 -10l-18 4q-29 0 -96.5 18t-100.5 18q-24 0 -73 -18l-56 -22q-32 14 -49 34q-14 17 -14 45q0 50 20 70z"/>
<glyph glyph-name="uni0391" horiz-adv-x="1460" unicode="Α" d="M1006 549l-271 727l-286 -727h557zM1444 0h-230l-147 381h-684l-164 -381h-205l627 1475h211z"/>
<glyph glyph-name="uni0392" horiz-adv-x="1312" unicode="Β" d="M997 422q0 262 -327 262h-303v-520h303q157 0 242 55t85 203zM956 1075q0 236 -305 236h-284v-463h284q148 0 226.5 46t78.5 181zM1206 391q0 -119 -36.5 -198.5t-110.5 -120.5t-158 -56.5t-203 -15.5h-528v1475h502q200 0 293 -43q202 -97 202 -334q0 -248 -239 -324 q278 -82 278 -383z"/>
<glyph glyph-name="uni0393" horiz-adv-x="1089" unicode="Γ" d="M1073 1298h-708v-1298h-195v1475h903v-177z"/>
<glyph glyph-name="uni0394" horiz-adv-x="1478" unicode="Δ" d="M1174 164l-445 1077l-440 -1077h885zM1456 0h-1431l604 1475h221z"/>
<glyph glyph-name="uni0395" horiz-adv-x="1236" unicode="Ε" d="M1102 0h-932v1475h915v-175h-718v-448h688v-174h-688v-502h735v-176z"/>
<glyph glyph-name="uni0396" horiz-adv-x="1232" unicode="Ζ" d="M1159 0h-1085v209l846 1089h-811v177h1024v-211l-838 -1082h864v-182z"/>
<glyph glyph-name="uni0397" horiz-adv-x="1462" unicode="Η" d="M1292 0h-196v670h-725v-670h-201v1475h201v-629h725v629h196v-1475z"/>
<glyph glyph-name="uni0398" horiz-adv-x="1579" unicode="Θ" d="M1098 668h-619v174h619v-174zM1249 739q0 123 -23.5 224.5t-73.5 187.5t-143.5 135t-220 49t-219 -48t-143.5 -134t-74.5 -187.5t-23.5 -222t23.5 -222t74.5 -188.5t143.5 -137.5t219 -50.5t220 48.5t144.5 134.5t73.5 187t22.5 224zM1462 733q0 -346 -168 -551 t-503.5 -205t-504.5 206t-169 550q0 348 167 556t506.5 208t505.5 -207t166 -557z"/>
<glyph glyph-name="uni0399" horiz-adv-x="538" unicode="Ι" d="M367 0h-197v1475h197v-1475z"/>
<glyph glyph-name="uni039A" horiz-adv-x="1331" unicode="Κ" d="M1315 0h-283l-665 780v-780h-197v1475h197v-633l606 633h264l-641 -656z"/>
<glyph glyph-name="uni039B" horiz-adv-x="1443" unicode="Λ" d="M1427 0h-231l-461 1276l-497 -1276h-205l608 1475h211z"/>
<glyph glyph-name="uni039C" horiz-adv-x="1861" unicode="Μ" d="M1690 0h-193v1319l-471 -1319h-170l-487 1305v-1305h-197v1475h336l438 -1203l418 1203h326v-1475z"/>
<glyph glyph-name="uni039D" horiz-adv-x="1503" unicode="Ν" d="M1329 0h-242l-733 1251v-1251h-182v1475h281l698 -1203v1203h178v-1475z"/>
<glyph glyph-name="uni039E" horiz-adv-x="1318" unicode="Ξ" d="M1217 0h-1113v176h1113v-176zM1159 676h-999v176h999v-176zM1200 1298h-1079v177h1079v-177z"/>
<glyph glyph-name="uni039F" horiz-adv-x="1579" unicode="Ο" d="M1249 739q0 123 -23.5 224.5t-73.5 187.5t-143.5 135t-220 49t-219 -48t-143.5 -134t-74.5 -187.5t-23.5 -222t23.5 -222t74.5 -188.5t143.5 -137.5t219 -50.5t220 48.5t144.5 134.5t73.5 187t22.5 224zM1462 733q0 -346 -168 -551t-503.5 -205t-504.5 206t-169 550 q0 348 167 556t506.5 208t505.5 -207t166 -557z"/>
<glyph glyph-name="uni03A0" horiz-adv-x="1462" unicode="Π" d="M1292 0h-196v1300h-725v-1300h-201v1475h1122v-1475z"/>
<glyph glyph-name="uni03A1" horiz-adv-x="1234" unicode="Ρ" d="M956 1065q0 141 -76.5 190.5t-228.5 49.5h-284v-476h284q148 0 226.5 49.5t78.5 186.5zM1165 1069q0 -131 -51 -220t-134 -127t-180 -57t-187 -19q-18 0 -54 1.5t-88 1.5q-53 0 -104 -2v-647h-197v1475h514q481 0 481 -406z"/>
<glyph glyph-name="uni03A3" horiz-adv-x="1232" unicode="Σ" d="M1124 0h-1030v201l520 555l-499 520v199h993v-175h-768l524 -538l-549 -586h809v-176z"/>
<glyph glyph-name="uni03A4" horiz-adv-x="1234" unicode="Τ" d="M1206 1298h-491v-1298h-197v1298h-489v177h1177v-177z"/>
<glyph glyph-name="uni03A5" horiz-adv-x="1345" unicode="Υ" d="M1327 1475l-551 -893v-582h-196v582l-562 893h244l426 -719l414 719h225z"/>
<glyph glyph-name="uni03A6" horiz-adv-x="1662" unicode="Φ" d="M731 260v959q-213 -21 -324.5 -144t-111.5 -338q0 -213 111.5 -334.5t324.5 -142.5zM1370 737q0 213 -112.5 337t-325.5 145v-959q211 21 324.5 143.5t113.5 333.5zM1569 739q0 -284 -173 -443t-464 -181v-260h-201v260q-291 18 -464 179t-173 445q0 281 175 440.5 t462 178.5v260h201v-260q287 -19 462 -178.5t175 -440.5z"/>
<glyph glyph-name="uni03A7" horiz-adv-x="1433" unicode="Χ" d="M1389 0h-238l-430 639l-445 -639h-231l561 774l-491 701h231l391 -568l389 568h232l-512 -701z"/>
<glyph glyph-name="uni03A8" horiz-adv-x="1804" unicode="Ψ" d="M1671 1075q0 -180 -39 -300t-125 -188.5t-204.5 -97t-298.5 -32.5v-457h-201v457q-180 4 -299 31.5t-206 97t-126 188.5t-39 301v400h201v-402q0 -264 101.5 -364.5t367.5 -110.5v877h201v-877q266 10 367.5 110.5t101.5 364.5v402h198v-400z"/>
<glyph glyph-name="uni03B1" horiz-adv-x="1249" unicode="α" d="M887 494q0 75 -14.5 145t-46 135.5t-92 105.5t-140.5 40q-150 0 -223.5 -117t-73.5 -277q0 -75 14.5 -145t46 -135.5t92 -105.5t140.5 -40q149 0 223 117t74 277zM1145 0h-205l-35 158q-125 -181 -348 -181q-225 0 -341 148.5t-116 380.5q0 244 116 391t353 147 q217 0 328 -157l43 141h205q-70 -248 -70 -514q0 -242 70 -514z"/>
<glyph glyph-name="uni03B2" horiz-adv-x="1191" unicode="β" d="M893 399q0 152 -82 229t-236 77h-92v133h82q133 0 216 77.5t83 208.5q0 121 -66.5 182.5t-189.5 61.5q-151 0 -206.5 -83t-55.5 -243v-510q0 -145 14 -200q27 -99 103 -159t178 -60q123 0 187.5 79.5t64.5 206.5zM1087 412q0 -195 -110.5 -315t-302.5 -120 q-207 0 -328 154v-518h-190v1425q0 234 113.5 347.5t346.5 113.5q189 0 311 -88t122 -268q0 -250 -246 -350q149 -41 216.5 -133.5t67.5 -247.5z"/>
<glyph glyph-name="uni03B3" horiz-adv-x="1089" unicode="γ" d="M1042 1028l-403 -985v-430h-190v430l-416 985h203l313 -784l303 784h190z"/>
<glyph glyph-name="uni03B4" horiz-adv-x="1259" unicode="δ" d="M932 457q0 116 -65.5 200t-184.5 164q-381 -49 -381 -368q0 -152 82 -241t231 -89q146 0 232 93t86 241zM1126 463q0 -232 -146 -359t-382 -127q-219 0 -355.5 120t-136.5 337q0 205 125 335t332 161q-63 53 -100 90t-76 101.5t-39 125.5q0 252 404 252q30 0 91.5 -4 t90.5 -4v-145q-107 10 -189 10q-208 0 -208 -103q0 -71 225 -252q47 -36 92 -74t86 -74t75 -79t58.5 -88t38.5 -102.5t14 -120.5z"/>
<glyph glyph-name="uni03B5" horiz-adv-x="1024" unicode="ε" d="M915 -6q-92 -17 -213 -17q-276 0 -440 133.5t-164 403.5q0 268 165 404.5t442 136.5q100 0 210 -17v-141q-124 18 -208 18q-371 0 -410 -303h598v-143h-604q12 -193 122.5 -272.5t311.5 -79.5q88 0 190 16v-139z"/>
<glyph glyph-name="uni03B6" horiz-adv-x="944" unicode="ζ" d="M901 -106q0 -283 -430 -283q-68 0 -102 4v131q18 -2 43 -2q24 0 69 3t101.5 10t98.5 39t42 83q0 37 -34 63.5t-89 44t-120.5 35t-131 48t-121 73.5t-89.5 119t-34 176q0 244 159 478.5t386 414.5h-440v144h686v-99q-107 -80 -207 -178t-191 -217t-145.5 -254t-54.5 -260 q0 -117 62.5 -186.5t150.5 -98t177 -53.5t151.5 -81t62.5 -154z"/>
<glyph glyph-name="uni03B7" horiz-adv-x="1204" unicode="η" d="M1047 -387h-189v1051q0 124 -54 187.5t-175 63.5q-111 0 -192 -62t-81 -171v-682h-190v817q0 119 -8 211h192l6 -160q37 90 127 137.5t195 47.5q94 0 181 -36t138 -106q50 -69 50 -264v-1034z"/>
<glyph glyph-name="uni03B8" horiz-adv-x="1253" unicode="θ" d="M969 688h-686q10 -569 342 -569q327 0 344 569zM969 831q-4 105 -17.5 183t-47.5 165t-103.5 135t-171.5 48q-82 0 -143.5 -36t-96.5 -86t-58.5 -128t-31.5 -139.5t-14 -141.5h684zM1165 774q0 -115 -15 -221.5t-54 -214t-100.5 -185t-160 -127t-225.5 -49.5 q-143 0 -249.5 63.5t-163 172.5t-83 229.5t-26.5 255.5q0 113 14.5 217.5t52.5 213t97 188.5t156.5 130t220.5 50q121 0 215 -42t153.5 -110.5t98.5 -164t54 -195.5t15 -211z"/>
<glyph glyph-name="uni03B9" horiz-adv-x="512" unicode="ι" d="M352 0h-190v1028h190v-1028z"/>
<glyph glyph-name="uni03BA" horiz-adv-x="1064" unicode="κ" d="M1059 0h-246l-457 545v-545h-190v1028h190v-440l422 440h221l-440 -457z"/>
<glyph glyph-name="uni03BB" horiz-adv-x="1085" unicode="λ" d="M1063 0h-199l-323 809l-324 -809h-184l420 1028l-158 389h199z"/>
<glyph glyph-name="uni03BC" horiz-adv-x="1179" unicode="μ" d="M1024 0h-193l-6 160q-41 -84 -116.5 -132t-169.5 -48q-129 0 -193 112q0 -291 -29 -479h-192q33 154 33 350v1065h188v-643q0 -250 217 -250q109 0 185.5 62.5t76.5 169.5v661h189v-825q0 -90 10 -203z"/>
<glyph glyph-name="uni03BD" horiz-adv-x="1112" unicode="ν" d="M1073 1028l-434 -1028h-186l-420 1028h192l328 -815l332 815h188z"/>
<glyph glyph-name="uni03BE" horiz-adv-x="854" unicode="ξ" d="M803 -94q0 -86 -39 -147.5t-106.5 -91t-138 -43t-152.5 -13.5q-33 0 -103 4v131q10 0 32.5 -1t35.5 -1q293 0 293 141q0 52 -56.5 90.5t-136.5 69.5t-158.5 71t-135 113.5t-56.5 176.5q0 126 86 215.5t217 130.5q-223 75 -223 280q0 109 64.5 187.5t172.5 111.5h-270v144 h664v-134q-445 -20 -445 -288q0 -246 400 -246v-125q-76 0 -147 -9t-149.5 -34t-127 -80t-48.5 -135q0 -82 54.5 -134t132.5 -81t154.5 -58.5t131 -91t54.5 -153.5z"/>
<glyph glyph-name="uni03BF" horiz-adv-x="1232" unicode="ο" d="M932 520q0 172 -75 283.5t-239 111.5q-110 0 -184 -62t-103.5 -151.5t-29.5 -197.5q0 -168 76 -276.5t237 -108.5q164 0 241 114.5t77 286.5zM1124 522q0 -250 -132 -397.5t-378 -147.5q-241 0 -374.5 137.5t-133.5 379.5q0 249 133.5 403t378.5 154q244 0 375 -141.5 t131 -387.5z"/>
<glyph glyph-name="uni03C0" horiz-adv-x="1214" unicode="π" d="M1186 887h-166v-887h-189v887h-448v-887h-190v887h-166v141h1159v-141z"/>
<glyph glyph-name="uni03C1" horiz-adv-x="1251" unicode="ρ" d="M954 520q0 166 -71.5 280.5t-227.5 114.5q-157 0 -229 -119.5t-72 -289.5q0 -166 72 -276.5t227 -110.5q82 0 142.5 34.5t94.5 94t49 127t15 145.5zM1149 522q0 -239 -126 -392t-359 -153q-191 0 -308 156v-520h-190v809q0 629 498 629q233 0 359 -145.5t126 -383.5z"/>
<glyph glyph-name="uni03C2" horiz-adv-x="966" unicode="ς" d="M913 -106q0 -84 -37.5 -142.5t-102 -87.5t-132.5 -41t-147 -12q-27 0 -84 4v131q14 1 32 1t32.5 -0.5t23.5 -0.5q32 0 72 6t78 17.5t62.5 40t24.5 69.5q0 51 -57 86q-25 15 -117 41q-217 64 -336 176.5t-119 317.5q0 268 164 411.5t437 143.5q63 0 141 -11v-139 q-76 10 -135 10q-193 0 -301.5 -100t-108.5 -291q0 -98 34 -167.5t87 -106.5t118.5 -63.5t131 -48t119 -48.5t87 -76t33.5 -120z"/>
<glyph glyph-name="uni03C3" horiz-adv-x="1232" unicode="σ" d="M932 520q0 172 -75 283.5t-239 111.5q-110 0 -184 -62t-103.5 -151.5t-29.5 -197.5q0 -168 76 -276.5t237 -108.5q164 0 241 114.5t77 286.5zM1251 887h-270q145 -107 145 -371q0 -246 -134 -392.5t-378 -146.5q-241 0 -374.5 137.5t-133.5 379.5q0 256 136.5 407.5 t390.5 151.5q39 0 112.5 -12.5t98.5 -12.5h407v-141z"/>
<glyph glyph-name="uni03C4" horiz-adv-x="952" unicode="τ" d="M928 887h-357v-887h-190v887h-358v141h905v-141z"/>
<glyph glyph-name="uni03C5" horiz-adv-x="1171" unicode="υ" d="M1016 383q0 -213 -107.5 -307t-322.5 -94q-217 0 -322.5 94t-105.5 307v645h188v-655q0 -250 239.5 -250t239.5 250v655h191v-645z"/>
<glyph glyph-name="uni03C6" horiz-adv-x="1523" unicode="φ" d="M1219 530q0 154 -76 273t-221 119q-25 0 -40.5 -8.5t-21.5 -21.5t-9 -30.5t-3 -37v-40.5v-655q188 18 279.5 115.5t91.5 285.5zM1411 532q0 -247 -153.5 -378t-409.5 -150v-391h-172v387q-248 12 -405.5 138t-157.5 366q0 219 119.5 356t338.5 178l29 -118 q-297 -62 -297 -404q0 -366 373 -389v643q0 61 2 96t13 75t32.5 59.5t60.5 33t99 13.5q229 0 378.5 -142.5t149.5 -372.5z"/>
<glyph glyph-name="uni03C7" horiz-adv-x="1052" unicode="χ" d="M1038 -387h-204l-306 577l-327 -577h-195l430 739l-377 676h201l283 -518l278 518h197l-383 -678z"/>
<glyph glyph-name="uni03C8" horiz-adv-x="1521" unicode="ψ" d="M1364 522q0 -272 -129 -392t-406 -130v-387h-172v387q-276 10 -405 130t-129 392v506h188v-512q0 -190 80 -287.5t266 -103.5v903h172v-903q187 6 267 103.5t80 287.5v512h188v-506z"/>
<glyph glyph-name="uni2013" horiz-adv-x="1138" unicode="–" d="M-12 457v147h1163v-147h-1163z"/>
<glyph glyph-name="emdash" horiz-adv-x="2048" unicode="—" d="M0 629h2052q35 0 55.5 -20.5t20.5 -59.5q0 -78 -76 -78h-2052q-76 0 -76 78q0 80 76 80z"/>
<glyph glyph-name="uni2018" horiz-adv-x="454" unicode="‘" d="M324 1221v-209h-193v164q0 53 3 83.5t16.5 81t50.5 87t94 63.5l45 -70q-104 -43 -111 -200h95z"/>
<glyph glyph-name="quotesinglbase" horiz-adv-x="454" unicode="‚" d="M125 41v209h192v-166q0 -143 -30 -205q-31 -58 -135 -110l-43 71q55 25 81.5 70t26.5 131h-92z"/>
<glyph glyph-name="uni201C" horiz-adv-x="681" unicode="“" d="M281 1221v-209h-193v164q0 53 3 83.5t16.5 81t50.5 87t94 63.5l45 -70q-104 -43 -111 -200h95zM592 1221v-209h-193v164q0 53 3.5 83.5t16.5 81t50 87t94 63.5l45 -70q-104 -43 -110 -200h94z"/>
<glyph glyph-name="uni201D" horiz-adv-x="681" unicode="”" d="M401 1257v209h193v-163q0 -54 -3 -84.5t-16.5 -81t-50.5 -87t-94 -63.5l-45 70q104 43 111 200h-95zM90 1257v209h193v-163q0 -54 -3.5 -84.5t-16.5 -81t-50 -87t-94 -63.5l-45 70q104 43 110 200h-94z"/>
<glyph glyph-name="uni2020" horiz-adv-x="1138" unicode="†" d="M479 -346v1212h-399v160h399v406h180v-406h400v-160h-400v-1212h-180z"/>
<glyph glyph-name="uni2021" horiz-adv-x="1138" unicode="‡" d="M479 -346v371h-399v159h399v727h-399v160h399v375h180v-375h398v-160h-398v-727h400v-159h-400v-371h-180z"/>
<glyph glyph-name="uni2026" horiz-adv-x="2048" unicode="…" d="M500 731q0 -137 -138 -137q-139 0 -139 137q0 139 148 139q53 0 91 -42t38 -97zM1159 731q0 -137 -137 -137t-137 137q0 139 145 139q53 0 91 -42t38 -97zM1823 731q0 -137 -142 -137q-135 0 -135 137q0 139 146 139q55 0 93 -41t38 -98z"/>
<glyph glyph-name="uni2030" horiz-adv-x="2048" unicode="‰" d="M322 -51l600 1542h131l-598 -1542h-133zM1585 328q0 -258 144 -258q135 0 135 260q0 262 -139.5 262t-139.5 -264zM1438 336q0 53 8 104.5t32.5 121t87 112.5t156.5 43q78 0 136.5 -33t86 -75t44 -101t19.5 -95t3 -73q0 -395 -287 -395q-82 0 -140 35.5t-84.5 79.5 t-42 108.5t-17.5 96.5t-2 71zM911 328q0 -258 144 -258q135 0 135 260q0 262 -139.5 262t-139.5 -264zM764 336q0 53 8 104.5t32.5 121t87 112.5t157.5 43q77 0 135.5 -33t86 -75t44 -101t19.5 -95t3 -73q0 -395 -286 -395q-82 0 -140.5 35.5t-85 79.5t-42 108.5t-17.5 96.5 t-2 71zM184 1092q0 -258 144 -258q135 0 135 260q0 262 -139.5 262t-139.5 -264zM37 1098q0 53 8 104t32.5 121t87 113t157.5 43q77 0 135.5 -33t86 -75t44 -101.5t19.5 -95t3 -72.5q0 -395 -286 -395q-82 0 -140.5 35.5t-85 79.5t-42 108.5t-17.5 96.5t-2 71z"/>
<glyph glyph-name="uni2032" horiz-adv-x="505" unicode="′" d="M459 1642l-269 -286h-137l183 286h223z"/>
<glyph glyph-name="uni2033" horiz-adv-x="866" unicode="″" d="M453 1642l-271 -286h-135l182 286h224zM821 1642l-270 -286h-135l180 286h225z"/>
<glyph glyph-name="guilsinglleft" horiz-adv-x="491" unicode="‹" d="M88 549l205 366q31 54 72 54q24 0 51 -23q24 -21 24 -49q0 -25 -18 -66l-174 -282l178 -293q14 -27 14 -59q0 -56 -80 -68q-45 0 -63 51z"/>
<glyph glyph-name="guilsinglright" horiz-adv-x="491" unicode="›" d="M444 549l-204 -365q-31 -55 -72 -55q-68 9 -80 68q4 22 25 71l168 281l-177 291l-20 53q10 72 80 72q47 0 72 -45z"/>
<glyph glyph-name="uni2122" horiz-adv-x="1705" unicode="™" d="M705 1368h-173v-459h-129v459h-172v100h474v-100zM1415 909h-119v396l-147 -396h-72l-155 398v-398h-119v559h168l143 -364l133 364h168v-559z"/>
<glyph glyph-name="uni2190" horiz-adv-x="2048" unicode="←" d="M1905 694h-1436l139 -272l-467 313l467 316l-139 -275h1436v-82z"/>
<glyph glyph-name="uni2191" horiz-adv-x="2048" unicode="↑" d="M1335 1149l-270 137v-1429h-84v1429l-270 -137l313 465z"/>
<glyph glyph-name="uni2192" horiz-adv-x="2048" unicode="→" d="M1905 735l-467 -313l139 272h-1436v82h1436l-139 275z"/>
<glyph glyph-name="uni2193" horiz-adv-x="2048" unicode="↓" d="M1335 317l-311 -460l-313 460l270 -137v1434h84v-1434z"/>
<glyph glyph-name="uni21D2" horiz-adv-x="2048" unicode="⇒" d="M1872 733l-551 -553l-64 62l246 245h-1227v82h1309l164 164l-164 164h-1309v82h1227l-246 246l64 61z"/>
<glyph glyph-name="uni2200" horiz-adv-x="1304" unicode="∀" d="M879 860h-459l231 -649zM1311 1473l-549 -1473h-221l-545 1473h205l157 -443h580l156 443h217z"/>
<glyph glyph-name="uni2202" horiz-adv-x="1058" unicode="∂" d="M707 494q0 98 -38 169.5t-128 71.5q-72 0 -125.5 -50t-78 -128t-35.5 -148.5t-11 -138.5q0 -100 38 -169.5t128 -69.5q69 0 122.5 50t79 127t37 148.5t11.5 137.5zM961 752q0 -121 -28 -248t-83 -249t-157.5 -200t-233.5 -78q-158 0 -256.5 109t-98.5 268 q0 183 103.5 319t279.5 136q199 0 269 -188q30 202 30 325q0 260 -145 260q-49 0 -125 -58t-110 -58q-33 0 -58.5 21.5t-25.5 53.5q0 76 81.5 118t163.5 42q109 0 189 -53t123 -141.5t62.5 -183.5t19.5 -195z"/>
<glyph glyph-name="uni2203" horiz-adv-x="1308" unicode="∃" d="M1151 0h-1067v182h868v496h-786v172h786v440h-850v183h1049v-1473z"/>
<glyph glyph-name="uni2207" horiz-adv-x="1349" unicode="∇" d="M1143 1255h-778l383 -968zM1292 1456l-604 -1479h-37l-596 1479h1237z"/>
<glyph glyph-name="uni2208" horiz-adv-x="1628" unicode="∈" d="M1407 0h-594q-248 0 -420 172t-172 420q0 246 173 419t419 173h594v-99h-594q-188 0 -331.5 -129t-157.5 -315h1083v-98h-1083q14 -189 156.5 -317t332.5 -128h594v-98z"/>
<glyph glyph-name="uni220B" horiz-adv-x="1628" unicode="∋" d="M1407 592q0 -248 -172 -420t-422 -172h-592v98h592q191 0 334 128t158 317h-1084v98h1084q-15 188 -159.5 316t-332.5 128h-592v99h592q246 0 420 -173t174 -419z"/>
<glyph glyph-name="uni220F" horiz-adv-x="1550" unicode="∏" d="M1393 -391h-240v1659h-758v-1659h-239v1864h1237v-1864z"/>
<glyph glyph-name="uni2211" horiz-adv-x="1380" unicode="∑" d="M1339 -391h-1314v149l725 799l-695 739v177h1258v-193h-959l672 -717l-694 -762h1007v-192z"/>
<glyph glyph-name="minus" horiz-adv-x="681" unicode="−" d="M66 440v181h552v-181h-552z"/>
<glyph glyph-name="uni221A" horiz-adv-x="1304" unicode="√" d="M1305 1565h-115l-594 -1604h-66l-319 881l-125 -45l-25 80l283 98l256 -709l516 1395h189v-96z"/>
<glyph glyph-name="uni221D" horiz-adv-x="2048" unicode="∝" d="M1063 670q-98 190 -279 190q-108 0 -173.5 -73.5t-65.5 -182.5q0 -102 58.5 -177t158.5 -75q45 0 88 23.5t70.5 51.5t59.5 80t45 80.5t38 82.5zM1552 262q-67 -31 -129 -31q-100 0 -166.5 71t-121.5 185q-129 -256 -322 -256q-145 0 -231 115t-86 264q0 154 75.5 266.5 t221.5 112.5q188 0 305 -250q123 250 297 250q75 0 157 -41v-74q-57 11 -75 11q-58 0 -107 -30t-89 -88t-61.5 -98t-50.5 -106q52 -108 119.5 -167.5t171.5 -59.5q15 0 92 10v-84z"/>
<glyph glyph-name="uni221E" horiz-adv-x="1705" unicode="∞" d="M793 666q-99 176 -267 176q-102 0 -165.5 -67.5t-63.5 -170.5q0 -94 57.5 -164.5t149.5 -70.5q53 0 99 26.5t84 80.5t57.5 91t48.5 99zM1411 621q0 96 -56.5 165.5t-150.5 69.5q-53 0 -99 -26.5t-84 -81t-57.5 -91t-48.5 -98.5q97 -178 267 -178q100 0 164.5 68.5 t64.5 171.5zM1487 614q0 -155 -77 -272t-224 -117q-109 0 -181.5 68.5t-140.5 189.5q-63 -118 -138 -190t-183 -72q-150 0 -236 117t-86 272.5t77 273t224 117.5q109 0 182.5 -71.5t137.5 -192.5q133 269 323 269q146 0 234 -120t88 -272z"/>
<glyph glyph-name="uni2220" horiz-adv-x="1705" unicode="∠" d="M1497 0h-1276l-12 33l895 1276l106 -80l-573 -819q-121 -177 -213 -283q172 8 260 8h813v-135z"/>
<glyph glyph-name="uni2227" horiz-adv-x="1705" unicode="∧" d="M1401 20h-154l-395 971l-393 -971h-154l483 1178h130z"/>
<glyph glyph-name="uni2228" horiz-adv-x="1705" unicode="∨" d="M1401 1198l-483 -1178h-130l-483 1178h154l393 -969l395 969h154z"/>
<glyph glyph-name="uni2229" horiz-adv-x="1705" unicode="∩" d="M1489 0h-143v709q0 243 -128 375.5t-370 132.5q-234 0 -360 -137.5t-126 -372.5v-707h-145v711q0 303 167 472t470 169t469 -169t166 -472v-711z"/>
<glyph glyph-name="uni222A" horiz-adv-x="1705" unicode="∪" d="M1489 616q0 -303 -166 -471t-469 -168t-470 168t-167 471v711h145v-706q0 -240 126 -374t364 -134q240 0 367 133t127 372v709h143v-711z"/>
<glyph glyph-name="uni2234" horiz-adv-x="1628" unicode="∴" d="M420 0h-199v197h199v-197zM1407 0h-199v197h199v-197zM913 987h-198v197h198v-197z"/>
<glyph glyph-name="uni223C" horiz-adv-x="1628" unicode="∼" d="M1407 739q-18 -317 -264 -317q-99 0 -352.5 120t-335.5 120q-80 0 -125 -67t-45 -151h-64q17 320 262 320q113 0 366 -120t327 -120q143 0 170 215h61z"/>
<glyph glyph-name="uni2260" horiz-adv-x="1705" unicode="≠" d="M1452 344h-709l-249 -317l-105 84l184 233h-319v135h408l204 262h-612v136h702l252 317l105 -82l-187 -235h326v-136h-416l-205 -262h621v-135z"/>
<glyph glyph-name="uni2261" horiz-adv-x="1705" unicode="≡" d="M1452 178h-1198v135h1198v-135zM1452 541h-1198v137h1198v-137zM1452 907h-1198v135h1198v-135z"/>
<glyph glyph-name="uni2264" horiz-adv-x="1705" unicode="≤" d="M1446 23h-1184v139h1184v-139zM1444 295l-1182 395v121l1182 395v-147l-936 -309l936 -306v-149z"/>
<glyph glyph-name="uni2265" horiz-adv-x="1705" unicode="≥" d="M1446 23h-1184v139h1184v-139zM1446 690l-1184 -395v149l938 306l-938 309v147l1184 -395v-121z"/>
<glyph glyph-name="uni2282" horiz-adv-x="1705" unicode="⊂" d="M1520 0h-693q-303 0 -472 166t-169 469t169 469t472 166h693v-137h-689q-233 0 -363 -129.5t-130 -362.5q0 -240 126 -371t365 -131h691v-139z"/>
<glyph glyph-name="uni2283" horiz-adv-x="1705" unicode="⊃" d="M1520 635q0 -303 -168 -469t-471 -166h-693v139h689q239 0 366 131t127 371q0 233 -130 362.5t-363 129.5h-689v137h693q303 0 471 -166t168 -469z"/>
<glyph glyph-name="uni2286" horiz-adv-x="1705" unicode="⊆" d="M1520 -139h-1334v129h1334v-129zM1520 174h-693q-303 0 -472 166t-169 469t169 469t472 166h693v-139h-689q-233 0 -363 -128t-130 -362q0 -240 127 -372t364 -132h691v-137z"/>
<glyph glyph-name="uni2287" horiz-adv-x="1705" unicode="⊇" d="M1520 -139h-1332v129h1332v-129zM1520 809q0 -303 -168 -469t-471 -166h-693v137h689q239 0 366 132t127 372q0 234 -130 362t-363 128h-689v139h693q303 0 471 -166t168 -469z"/>
<glyph glyph-name="uni22A5" horiz-adv-x="1705" unicode="⊥" d="M1452 0h-1198v139h528v1082h142v-1082h528v-139z"/>
<glyph glyph-name="uni2660" horiz-adv-x="2048" unicode="♠" d="M1743 471q0 -330 -318 -330q-118 0 -231 58q18 -125 113 -297q16 -33 16 -43q0 -64 -301 -64q-299 0 -299 66q0 12 14 41q99 184 115 297q-113 -58 -231 -58q-318 0 -318 328q0 268 537 930q45 49 99 119.5t83 130.5q20 -27 82.5 -116t99.5 -134q99 -123 160 -204 t164.5 -231.5t159 -276.5t55.5 -216z"/>
<glyph glyph-name="uni2663" horiz-adv-x="2048" unicode="♣" d="M1921 555q0 -186 -121 -323.5t-303 -137.5q-98 0 -191.5 47t-142.5 127q2 -69 22.5 -138t40 -107.5t66.5 -122.5l13 -25q-5 -61 -281 -61q-279 0 -283 61l13 25q32 67 60 119.5t47.5 116t21.5 132.5q-49 -80 -142.5 -127t-191.5 -47q-187 0 -303.5 136.5t-116.5 324.5 q0 201 115.5 302t320.5 101q31 0 150 -24q-125 188 -125 334q0 397 434 397q432 0 432 -399q0 -88 -31.5 -162t-93.5 -170q74 24 154 24q201 0 318.5 -103t117.5 -300z"/>
<glyph glyph-name="uni2665" horiz-adv-x="2048" unicode="♥" d="M1833 1079q0 -569 -809 -1169l-10 6q-320 193 -560.5 512.5t-240.5 650.5q0 461 426 461q109 0 212 -45t173 -125q0 2 2 4l4 4q178 162 379 162q424 0 424 -461z"/>
<glyph glyph-name="uni2666" horiz-adv-x="2048" unicode="♦" d="M1792 733l-768 -956l-770 956l770 961z"/>
</font>
</defs>
</svg>
